<?xml version="1.0" encoding="utf-8"?>
<!-- Generator: Adobe Illustrator 25.2.0, SVG Export Plug-In . SVG Version: 6.00 Build 0)  -->
<!DOCTYPE svg PUBLIC "-//W3C//DTD SVG 1.1//EN" "http://www.w3.org/Graphics/SVG/1.1/DTD/svg11.dtd" [
	<!ENTITY st0 "fill:#091B21;">
	<!ENTITY st1 "fill:#DAB162;">
]>
<svg version="1.1" id="Layer_1" xmlns="http://www.w3.org/2000/svg" xmlns:xlink="http://www.w3.org/1999/xlink" x="0px" y="0px"
	 viewBox="0 0 2560 1440" style="enable-background:new 0 0 2560 1440;" xml:space="preserve">
<rect x="0.5" y="-302.5" style="&st0;" width="2559.2" height="2043.9"/>
<g>
	
		<image style="overflow:visible;" width="449" height="534" xlink:href="4FBF861B0C345108.png"  transform="matrix(1 0 0 1 350 556)">
	</image>
</g>
<g>
	
		<image style="overflow:visible;" width="380" height="450" xlink:href="4FBF861B0C345109.png"  transform="matrix(1 0 0 1 384 598)">
	</image>
</g>
<g>
	
		<image style="overflow:visible;" width="269" height="355" xlink:href="4FBF861B0C34510F.png"  transform="matrix(1 0 0 1 466 629)">
	</image>
</g>
<g>
	
		<image style="overflow:visible;" width="163" height="203" xlink:href="4FBF861B0C34510A.png"  transform="matrix(1 0 0 1 519 705)">
	</image>
</g>
<g>
	
		<image style="overflow:visible;" width="112" height="129" xlink:href="4FBF861B0C34510B.png"  transform="matrix(1 0 0 1 544 742)">
	</image>
</g>
<g>
	
		<image style="overflow:visible;" width="818" height="986" xlink:href="4FBF861B0C345106.png"  transform="matrix(1 0 0 1 165 330)">
	</image>
</g>
<g>
	
		<image style="overflow:visible;" width="996" height="1204" xlink:href="4FBF861B0C345107.png"  transform="matrix(1 0 0 1 76 221)">
	</image>
</g>
<g>
	
		<image style="overflow:visible;" width="1216" height="1474" xlink:href="4FBF861B0C345118.png"  transform="matrix(1 0 0 1 -34 86)">
	</image>
</g>
<g>
	
		<image style="overflow:visible;" width="1355" height="1810" xlink:href="4FBF861B0C34511B.png"  transform="matrix(1 0 0 1 -36 -82)">
	</image>
</g>
<g>
	
		<image style="overflow:visible;" width="1523" height="2067" xlink:href="86AE61E8C38FB677.png"  transform="matrix(1 0 0 1 -36 -289)">
	</image>
</g>
<g>
	
		<image style="overflow:visible;" width="402" height="529" xlink:href="86AE61E8C38FB675.png"  transform="matrix(1 0 0 1 1835 876)">
	</image>
</g>
<g>
	
		<image style="overflow:visible;" width="342" height="446" xlink:href="86AE61E8C38FB673.png"  transform="matrix(1 0 0 1 1865 914)">
	</image>
</g>
<g>
	
		<image style="overflow:visible;" width="249" height="350" xlink:href="86AE61E8C38FB68D.png"  transform="matrix(1 0 0 1 1944 949)">
	</image>
</g>
<g>
	
		<image style="overflow:visible;" width="155" height="201" xlink:href="86AE61E8C38FB68F.png"  transform="matrix(1 0 0 1 1990 1018)">
	</image>
</g>
<g>
	
		<image style="overflow:visible;" width="108" height="128" xlink:href="86AE61E8C38FB692.png"  transform="matrix(1 0 0 1 2013 1052)">
	</image>
</g>
<g>
	
		<image style="overflow:visible;" width="726" height="978" xlink:href="86AE61E8C38FB693.png"  transform="matrix(1 0 0 1 1672 670)">
	</image>
</g>
<g>
	
		<image style="overflow:visible;" width="881" height="1194" xlink:href="86AE61E8C38FB695.png"  transform="matrix(1 0 0 1 1594 571)">
	</image>
</g>
<g>
	
		<image style="overflow:visible;" width="1074" height="1330" xlink:href="86AE61E8C38FB697.png"  transform="matrix(1 0 0 1 1497 448)">
	</image>
</g>
<g>
	
		<image style="overflow:visible;" width="1219" height="1482" xlink:href="86AE61E8C38FB690.png"  transform="matrix(1 0 0 1 1377 296)">
	</image>
</g>
<g>
	
		<image style="overflow:visible;" width="1368" height="1670" xlink:href="86AE61E8C38FB6B6.png"  transform="matrix(1 0 0 1 1228 108)">
	</image>
</g>
<g>
	
		<image style="overflow:visible;" width="1647" height="937" xlink:href="86AE61E8C38FB6B5.png"  transform="matrix(1 0 0 1 799 -334)">
	</image>
</g>
<g>
	
		<image style="overflow:visible;" width="1383" height="847" xlink:href="86AE61E8C38FB6B2.png"  transform="matrix(1 0 0 1 1023 -284)">
	</image>
</g>
<g>
	
		<image style="overflow:visible;" width="1070" height="583" xlink:href="86AE61E8C38FB6BD.png"  transform="matrix(1 0 0 1 1113 -183)">
	</image>
</g>
<g>
	
		<image style="overflow:visible;" width="408" height="271" xlink:href="86AE61E8C38FB6BE.png"  transform="matrix(1 0 0 1 1306 -38)">
	</image>
</g>
<g>
	
		<image style="overflow:visible;" width="598" height="384" xlink:href="86AE61E8C38FB6BC.png"  transform="matrix(1 0 0 1 1240 -90)">
	</image>
</g>
<g>
	
		<image style="overflow:visible;" width="544" height="324" xlink:href="86AE61E8C38FB6B3.png"  transform="matrix(1 0 0 1 1573 236)">
	</image>
</g>
<g>
	
		<image style="overflow:visible;" width="639" height="768" xlink:href="86AE61E8C38FB6B4.png"  transform="matrix(1 0 0 1 255 439)">
	</image>
</g>
<g>
	<path style="&st1;" d="M645.8,1049.5c-25.6-0.1-50.8-5.7-74.8-14.4c-18.3-6.6-36.2-15.5-51.1-28c-7.9-6.7-15-14.4-20.2-23.4
		c-5.9-10-8.9-21.2-11-32.6c-4.2-22.6-5.5-45.8-13.5-67.5c-4-10.8-9.5-21-16.9-29.9c-7.9-9.5-17.7-16.9-27.4-24.5
		c-8.9-7-17.1-14.4-23.7-23.7c-6.2-8.8-11-18.8-13.1-29.4c-2.1-10.1-1.6-21.2,3.1-30.6c4.4-8.9,12.5-15.3,21.6-18.9
		c9.6-3.9,20.3-5,30.4-3.1c6.5,1.2,12.6,4.1,19.1,5.3c5.4,1,11,1.2,16.5,0.5c18.3-2.4,31.7-15.5,41.5-30.3
		c4.9-7.5,9.1-15.4,13.2-23.3c5.3-10.1,10.7-19.8,17.8-28.8c7.1-9,14.7-17.5,22.3-25.9c4.7-5.2,9.3-10.7,14.2-15.7
		c15.6-15.8,43.2-12.2,61.4-3.7c19.6,9.1,32.9,26.4,37.8,47.3c2.4,10.2,2.8,20.9,1.1,31.3c-0.9,5.2-2.2,10.2-4.1,15.1
		c-2.1,5.3-4.9,10.2-7.6,15.2c-5.4,10.1-9.7,20.7-10.3,32.2c-0.5,10.6,2,21,6.5,30.6c4.3,9.2,10.1,17.5,16.4,25.5
		c7.5,9.5,15.3,18.8,22.5,28.6c26.4,36,48.2,78.2,45.2,124.2c-1.5,22.2-9,44.1-24.1,60.8c-14.7,16.2-34.8,27.1-55.9,32.7
		C670.5,1048.1,658.2,1049.4,645.8,1049.5c-1.9,0-1.9,3,0,3c24.1-0.1,48-5.4,68.9-17.5c18.5-10.8,33.8-26.5,42.2-46.4
		c18.2-43,6-91.5-16.1-130.5c-12-21.2-26.9-40.2-42.1-59.2c-13.7-17-26.1-36.8-23.6-59.6c1.4-12.4,7.4-23.1,13.1-33.9
		c5-9.4,8.2-19.4,9.3-30c2.1-20.2-3.4-41.4-16.2-57.4c-13.8-17.3-36.9-27.1-58.8-26.7c-9.7,0.2-19.7,2.5-27.6,8.6
		c-5.5,4.2-9.9,10.1-14.5,15.3c-8.1,9-16.3,18.1-23.9,27.6c-6.8,8.5-12.5,17.4-17.5,27.1c-8.7,16.6-17.2,35-32.4,46.8
		c-7.6,6-16.8,9.5-26.5,9.9c-6.7,0.3-13.3-0.9-19.6-3c-6.3-2.2-12.5-3.8-19.2-4c-18.8-0.6-39.8,8.2-47.6,26.3
		c-8.5,19.5-1.7,42,9.5,58.9c6.2,9.4,13.9,17.3,22.7,24.3c9.9,7.8,20.1,15.2,28.5,24.7c16.2,18.3,22.7,41.9,26.4,65.5
		c3.7,23.1,4.9,48,17.9,68.3c11.1,17.4,28.3,30,46.3,39.3c20.4,10.6,42.9,17.9,65.4,22.1c11.7,2.2,23.6,3.4,35.5,3.4
		C647.7,1052.5,647.7,1049.5,645.8,1049.5z"/>
</g>
<g>
	<path style="&st1;" d="M633.4,1007.8c-20.9-0.1-41.5-4.7-61.1-11.8c-14.9-5.4-29.6-12.6-41.8-22.9c-6.5-5.4-12.2-11.8-16.5-19.1
		c-4.8-8.2-7.3-17.3-9-26.6c-3.5-18.5-4.5-37.4-11.1-55.2c-3.3-8.8-7.8-17.2-13.8-24.4c-6.5-7.7-14.5-13.8-22.4-20
		c-7.3-5.7-14-11.8-19.3-19.4c-5-7.2-9-15.4-10.7-24c-1.7-8.3-1.3-17.4,2.5-25c3.6-7.2,10.2-12.5,17.6-15.5
		c7.8-3.1,16.6-4.1,24.9-2.6c5.3,1,10.3,3.4,15.6,4.4c4.4,0.8,9,1,13.4,0.4c15-2,25.9-12.6,33.9-24.8c4-6.1,7.4-12.6,10.8-19
		c4.3-8.2,8.7-16.2,14.5-23.5c5.8-7.3,12-14.3,18.2-21.2c3.8-4.3,7.6-8.8,11.6-12.9c12.8-12.9,35.3-10,50.2-3
		c16,7.5,26.8,21.6,30.9,38.6c2,8.3,2.3,17.1,0.9,25.6c-0.7,4.2-1.8,8.4-3.4,12.3c-1.7,4.3-4,8.3-6.2,12.4
		c-4.4,8.3-7.9,16.9-8.4,26.3c-0.4,8.7,1.7,17.2,5.3,25c3.5,7.5,8.3,14.3,13.4,20.8c6.1,7.8,12.5,15.4,18.4,23.4
		c21.5,29.4,39.4,63.9,36.9,101.4c-1.2,18.2-7.3,36.1-19.7,49.7c-12,13.3-28.5,22.2-45.7,26.7
		C653.5,1006.7,643.4,1007.8,633.4,1007.8c-1.6,0-1.6,2.5,0,2.4c19.7-0.1,39.2-4.4,56.3-14.3c15.1-8.8,27.6-21.7,34.5-37.9
		C739,923,729,883.3,711,851.5c-9.8-17.3-22-32.9-34.4-48.3c-11.2-13.9-21.4-30.1-19.3-48.7c1.1-10.1,6-18.9,10.7-27.7
		c4.1-7.7,6.7-15.9,7.6-24.5c1.7-16.5-2.8-33.8-13.2-46.9c-11.3-14.1-30.1-22.1-48-21.8c-8,0.1-16.1,2.1-22.5,7
		c-4.5,3.5-8.1,8.3-11.9,12.5c-6.6,7.4-13.3,14.8-19.6,22.5c-5.6,6.9-10.2,14.2-14.3,22.1c-7.1,13.6-14.1,28.6-26.5,38.3
		c-6.2,4.9-13.7,7.8-21.7,8.1c-5.5,0.2-10.9-0.7-16-2.5c-5.2-1.8-10.2-3.1-15.7-3.3c-15.4-0.5-32.5,6.7-38.9,21.5
		c-6.9,15.9-1.4,34.3,7.7,48.1c5.1,7.7,11.4,14.1,18.6,19.8c8.1,6.4,16.4,12.4,23.3,20.1c13.3,14.9,18.5,34.3,21.6,53.5
		c3,18.9,4,39.3,14.6,55.8c9,14.2,23.1,24.5,37.8,32.1c16.7,8.6,35,14.6,53.5,18.1c9.6,1.8,19.3,2.8,29,2.8
		C634.9,1010.3,634.9,1007.8,633.4,1007.8z"/>
</g>
<g>
	<path style="&st1;" d="M639.4,944.8c-13.3,0-26.5-3.5-39-8.8c-9.5-4.1-18.9-9.5-26.7-17.1c-4.1-4.1-7.8-8.8-10.6-14.3
		c-3.1-6.1-4.6-13-5.7-19.9c-2.2-13.8-2.9-28-7.1-41.3c-2.1-6.6-5-12.8-8.8-18.2c-4.1-5.8-9.2-10.3-14.3-14.9
		c-4.7-4.3-8.9-8.8-12.4-14.5c-3.2-5.4-5.7-11.5-6.9-18c-1.1-6.2-0.9-13,1.6-18.7c2.3-5.4,6.5-9.3,11.3-11.6
		c5-2.4,10.6-3.1,15.9-1.9c3.4,0.7,6.6,2.5,10,3.3c2.8,0.6,5.7,0.7,8.6,0.3c9.6-1.5,16.6-9.5,21.7-18.5c2.6-4.6,4.7-9.4,6.9-14.2
		c2.7-6.2,5.6-12.1,9.3-17.6c3.7-5.5,7.7-10.7,11.6-15.9c2.4-3.2,4.8-6.6,7.4-9.6c8.1-9.7,22.5-7.5,32.1-2.2
		c10.2,5.6,17.2,16.1,19.7,28.9c1.3,6.2,1.5,12.8,0.6,19.1c-0.5,3.2-1.2,6.3-2.2,9.2c-1.1,3.2-2.6,6.2-4,9.3
		c-2.8,6.2-5.1,12.6-5.4,19.7c-0.3,6.5,1.1,12.9,3.4,18.7c2.2,5.6,5.3,10.7,8.6,15.6c3.9,5.8,8,11.5,11.7,17.5
		c13.8,22,25.2,47.8,23.6,75.9c-0.8,13.6-4.7,27-12.6,37.2c-7.7,9.9-18.2,16.6-29.2,20C652.3,943.9,645.8,944.7,639.4,944.8
		c-1,0-1,1.8,0,1.8c12.6,0,25-3.3,36-10.7c9.7-6.6,17.6-16.2,22-28.3c9.5-26.3,3.1-55.9-8.4-79.7c-6.3-13-14.1-24.6-22-36.2
		c-7.1-10.4-13.6-22.5-12.3-36.4c0.7-7.6,3.8-14.1,6.8-20.7c2.6-5.8,4.3-11.9,4.9-18.4c1.1-12.3-1.8-25.3-8.4-35.1
		c-7.2-10.5-19.2-16.6-30.7-16.3c-5.1,0.1-10.3,1.6-14.4,5.2c-2.9,2.6-5.2,6.2-7.6,9.3c-4.2,5.5-8.5,11.1-12.5,16.8
		c-3.6,5.2-6.5,10.6-9.2,16.5c-4.6,10.2-9,21.4-16.9,28.6c-4,3.7-8.8,5.8-13.8,6.1c-3.5,0.2-6.9-0.5-10.2-1.9
		c-3.3-1.3-6.5-2.3-10-2.5c-9.8-0.4-20.8,5-24.9,16.1c-4.4,11.9-0.9,25.7,4.9,36c3.2,5.8,7.3,10.6,11.9,14.8
		c5.1,4.8,10.5,9.3,14.9,15.1c8.5,11.2,11.8,25.6,13.8,40.1c1.9,14.1,2.6,29.4,9.3,41.8c5.8,10.6,14.8,18.3,24.2,24
		c10.7,6.5,22.4,10.9,34.2,13.5c6.1,1.3,12.3,2.1,18.5,2.1C640.4,946.6,640.4,944.8,639.4,944.8z"/>
</g>
<g>
	<path style="&st1;" d="M620.3,870c-6.2,0-12.3-1.6-18.1-4.1c-4.4-1.9-8.7-4.4-12.3-7.9c-1.9-1.9-3.6-4.1-4.9-6.6
		c-1.4-2.8-2.1-6-2.7-9.2c-1-6.4-1.3-12.9-3.3-19.1c-1-3.1-2.3-5.9-4.1-8.4c-1.9-2.7-4.3-4.8-6.6-6.9c-2.2-2-4.1-4.1-5.7-6.7
		c-1.5-2.5-2.6-5.3-3.2-8.3c-0.5-2.9-0.4-6,0.7-8.7c1.1-2.5,3-4.3,5.2-5.3c2.3-1.1,4.9-1.4,7.3-0.9c1.6,0.3,3,1.2,4.6,1.5
		c1.3,0.3,2.6,0.3,4,0.1c4.4-0.7,7.7-4.4,10-8.6c1.2-2.1,2.2-4.3,3.2-6.6c1.3-2.9,2.6-5.6,4.3-8.1c1.7-2.5,3.5-4.9,5.4-7.3
		c1.1-1.5,2.2-3,3.4-4.4c3.8-4.5,10.4-3.4,14.8-1c4.7,2.6,7.9,7.5,9.1,13.4c0.6,2.9,0.7,5.9,0.3,8.8c-0.2,1.5-0.5,2.9-1,4.3
		c-0.5,1.5-1.2,2.9-1.8,4.3c-1.3,2.9-2.3,5.8-2.5,9.1c-0.1,3,0.5,5.9,1.6,8.7c1,2.6,2.4,5,4,7.2c1.8,2.7,3.7,5.3,5.4,8.1
		c6.4,10.2,11.6,22.1,10.9,35.1c-0.4,6.3-2.2,12.5-5.8,17.2c-3.6,4.6-8.4,7.7-13.5,9.2C626.2,869.6,623.3,870,620.3,870
		c-0.5,0-0.5,0.8,0,0.8c5.8,0,11.6-1.5,16.6-4.9c4.5-3,8.2-7.5,10.2-13.1c4.4-12.1,1.4-25.9-3.9-36.9c-2.9-6-6.5-11.4-10.2-16.7
		c-3.3-4.8-6.3-10.4-5.7-16.8c0.3-3.5,1.8-6.5,3.2-9.6c1.2-2.7,2-5.5,2.2-8.5c0.5-5.7-0.8-11.7-3.9-16.2c-3.3-4.9-8.9-7.7-14.2-7.5
		c-2.4,0-4.8,0.7-6.7,2.4c-1.3,1.2-2.4,2.9-3.5,4.3c-2,2.6-3.9,5.1-5.8,7.8c-1.6,2.4-3,4.9-4.2,7.6c-2.1,4.7-4.2,9.9-7.8,13.2
		c-1.8,1.7-4.1,2.7-6.4,2.8c-1.6,0.1-3.2-0.2-4.7-0.9c-1.5-0.6-3-1.1-4.6-1.1c-4.5-0.2-9.6,2.3-11.5,7.4c-2,5.5-0.4,11.9,2.3,16.6
		c1.5,2.7,3.4,4.9,5.5,6.9c2.4,2.2,4.8,4.3,6.9,7c3.9,5.2,5.5,11.9,6.4,18.5c0.9,6.5,1.2,13.6,4.3,19.3c2.7,4.9,6.8,8.5,11.2,11.1
		c4.9,3,10.3,5.1,15.8,6.2c2.8,0.6,5.7,1,8.6,1C620.7,870.8,620.7,870,620.3,870z"/>
</g>
<g>
	<path style="&st1;" d="M610.9,833.2c-2.6,0-5.3-0.7-7.7-1.7c-1.9-0.8-3.7-1.9-5.3-3.4c-0.8-0.8-1.6-1.7-2.1-2.8
		c-0.6-1.2-0.9-2.6-1.1-3.9c-0.4-2.7-0.6-5.5-1.4-8.2c-0.4-1.3-1-2.5-1.8-3.6c-0.8-1.1-1.8-2-2.8-3c-0.9-0.8-1.8-1.7-2.4-2.9
		c-0.6-1.1-1.1-2.3-1.4-3.6c-0.2-1.2-0.2-2.6,0.3-3.7c0.5-1.1,1.3-1.8,2.2-2.3c1-0.5,2.1-0.6,3.1-0.4c0.7,0.1,1.3,0.5,2,0.6
		c0.6,0.1,1.1,0.1,1.7,0.1c1.9-0.3,3.3-1.9,4.3-3.7c0.5-0.9,0.9-1.9,1.4-2.8c0.5-1.2,1.1-2.4,1.8-3.5c0.7-1.1,1.5-2.1,2.3-3.1
		c0.5-0.6,1-1.3,1.5-1.9c1.6-1.9,4.5-1.5,6.4-0.4c2,1.1,3.4,3.2,3.9,5.7c0.2,1.2,0.3,2.5,0.1,3.8c-0.1,0.6-0.2,1.2-0.4,1.8
		c-0.2,0.6-0.5,1.2-0.8,1.8c-0.6,1.2-1,2.5-1.1,3.9c-0.1,1.3,0.2,2.5,0.7,3.7c0.4,1.1,1,2.1,1.7,3.1c0.8,1.2,1.6,2.3,2.3,3.5
		c2.7,4.4,5,9.5,4.7,15c-0.2,2.7-0.9,5.3-2.5,7.4c-1.5,2-3.6,3.3-5.8,4C613.4,833.1,612.2,833.2,610.9,833.2c-0.2,0-0.2,0.4,0,0.4
		c2.5,0,5-0.6,7.1-2.1c1.9-1.3,3.5-3.2,4.4-5.6c1.9-5.2,0.6-11.1-1.7-15.8c-1.2-2.6-2.8-4.9-4.4-7.2c-1.4-2.1-2.7-4.5-2.4-7.2
		c0.1-1.5,0.8-2.8,1.4-4.1c0.5-1.1,0.8-2.3,1-3.6c0.2-2.4-0.4-5-1.7-6.9c-1.4-2.1-3.8-3.3-6.1-3.2c-1,0-2,0.3-2.9,1
		c-0.6,0.5-1,1.2-1.5,1.8c-0.8,1.1-1.7,2.2-2.5,3.3c-0.7,1-1.3,2.1-1.8,3.3c-0.9,2-1.8,4.2-3.3,5.7c-0.8,0.7-1.7,1.2-2.7,1.2
		c-0.7,0-1.4-0.1-2-0.4c-0.7-0.3-1.3-0.5-2-0.5c-1.9-0.1-4.1,1-4.9,3.2c-0.9,2.4-0.2,5.1,1,7.1c0.6,1.1,1.4,2.1,2.4,2.9
		c1,0.9,2.1,1.8,2.9,3c1.7,2.2,2.3,5.1,2.7,7.9c0.4,2.8,0.5,5.8,1.8,8.3c1.1,2.1,2.9,3.6,4.8,4.8c2.1,1.3,4.4,2.2,6.8,2.7
		c1.2,0.3,2.4,0.4,3.7,0.4C611.1,833.6,611.1,833.2,610.9,833.2z"/>
</g>
<g>
	<path style="&st1;" d="M712.6,1272.8c-50.6-0.1-100.8-11.3-148.2-28.6c-36.2-13.1-71.7-30.7-101.3-55.6
		c-15.7-13.2-29.7-28.6-40.1-46.3c-11.6-19.8-17.6-42.1-21.8-64.5c-8.4-44.8-11-90.7-26.8-133.8c-7.9-21.4-18.9-41.6-33.5-59.2
		c-15.7-18.7-35.1-33.5-54.2-48.5c-17.7-13.8-34-28.5-46.9-47c-12.2-17.5-21.7-37.2-26.1-58.2c-4.2-20.1-3.2-42.1,6.1-60.7
		c8.8-17.6,24.8-30.2,42.8-37.5c18.9-7.6,40.2-10,60.3-6.2c12.9,2.4,24.9,8.2,37.8,10.6c10.8,2,21.8,2.4,32.6,0.9
		c36.3-4.8,62.9-30.6,82.2-60.1c9.7-14.8,17.9-30.5,26.1-46.2c10.4-20,21.2-39.3,35.2-57c14-17.7,29.1-34.6,44.2-51.4
		c9.3-10.4,18.3-21.3,28.1-31.2c30.9-31.4,85.6-24.2,121.7-7.3c38.8,18.1,65.1,52.3,74.9,93.7c4.8,20.2,5.6,41.5,2.1,62
		c-1.7,10.2-4.4,20.3-8.2,29.9c-4.1,10.5-9.8,20.2-15,30.2c-10.6,20-19.2,41-20.4,63.9c-1.1,21,4,41.7,12.8,60.7
		c8.4,18.2,20.1,34.7,32.5,50.4c14.9,18.9,30.3,37.3,44.6,56.7c52.3,71.3,95.6,155.1,89.6,246c-2.9,44-17.8,87.5-47.7,120.5
		c-29.2,32.2-69,53.8-110.8,64.8C761.5,1270.2,737.1,1272.8,712.6,1272.8c-3.8,0-3.8,6,0,5.9c47.7-0.1,95.1-10.6,136.6-34.7
		c36.7-21.3,67-52.6,83.6-91.9c36-85.1,11.9-181.3-31.8-258.6c-23.7-42-53.4-79.7-83.5-117.2c-27.1-33.7-51.8-73-46.8-118.1
		c2.7-24.5,14.6-45.8,25.9-67.2c9.9-18.7,16.3-38.4,18.4-59.5c4.1-40-6.8-82.1-32-113.7c-27.4-34.2-73-53.7-116.5-52.9
		c-19.3,0.3-39.1,5-54.7,17c-10.9,8.4-19.6,20.1-28.8,30.3c-16.1,17.9-32.3,35.8-47.4,54.6c-13.5,16.8-24.7,34.5-34.8,53.6
		c-17.3,33-34.1,69.3-64.2,92.8c-15.1,11.8-33.3,18.9-52.6,19.7c-13.2,0.6-26.4-1.7-38.9-6c-12.5-4.3-24.7-7.5-38-8
		c-37.3-1.2-78.8,16.3-94.4,52.1c-16.8,38.6-3.3,83.2,18.7,116.7c12.3,18.7,27.6,34.3,45.1,48.1c19.5,15.5,39.8,30.1,56.4,48.9
		c32.2,36.2,44.9,83.1,52.4,129.9c7.4,45.8,9.8,95.2,35.4,135.4c21.9,34.4,56,59.4,91.8,77.9c40.5,20.9,84.9,35.5,129.7,43.8
		c23.2,4.3,46.8,6.8,70.4,6.8C716.4,1278.8,716.4,1272.9,712.6,1272.8z"/>
</g>
<g>
	<path style="&st1;" d="M744.8,1380.4c-62.7-0.2-124.8-14.1-183.6-35.4c-44.8-16.3-88.8-38-125.5-68.8
		c-19.5-16.4-36.8-35.4-49.7-57.4c-14.4-24.6-21.8-52.1-27-79.9c-10.4-55.4-13.6-112.4-33.2-165.8c-9.8-26.5-23.4-51.5-41.5-73.3
		c-19.4-23.2-43.4-41.5-67.2-60c-22-17.1-42.1-35.3-58.1-58.2c-15.2-21.7-26.9-46.1-32.3-72.1c-5.2-24.9-4-52.2,7.6-75.2
		c10.9-21.7,30.7-37.4,53-46.4c23.5-9.5,49.8-12.4,74.7-7.7c16,3,30.8,10.1,46.9,13.1c13.3,2.5,26.9,2.9,40.4,1.1
		c45-6,77.8-38,101.8-74.4c12.1-18.3,22.2-37.8,32.4-57.2c12.9-24.8,26.3-48.6,43.6-70.6c17.3-22,36-42.8,54.7-63.7
		c11.5-12.9,22.7-26.3,34.8-38.6c38.3-38.9,106-29.9,150.8-9c48,22.4,80.7,64.7,92.8,116.1c5.9,25,6.9,51.4,2.7,76.8
		c-2.1,12.7-5.5,25.1-10.2,37.1c-5.1,13-12.1,25.1-18.6,37.4c-13.1,24.8-23.8,50.8-25.2,79.1c-1.3,26,5,51.7,15.9,75.2
		c10.4,22.6,24.9,43,40.2,62.5c18.4,23.4,37.6,46.2,55.2,70.3c64.7,88.3,118.4,192.1,111,304.7c-3.6,54.5-22,108.4-59.1,149.2
		c-36.2,39.8-85.5,66.6-137.2,80.2C805.3,1377.1,775.1,1380.3,744.8,1380.4c-4.7,0-4.7,7.4,0,7.4c59.1-0.2,117.8-13.2,169.2-43
		c45.5-26.4,82.9-65.1,103.6-113.8c44.6-105.4,14.7-224.5-39.4-320.2c-29.4-52-66.1-98.7-103.4-145.2
		c-33.5-41.7-64.1-90.4-57.9-146.3c3.4-30.4,18-56.7,32.1-83.2c12.2-23.1,20.2-47.6,22.8-73.7c5.1-49.5-8.4-101.7-39.7-140.8
		c-33.9-42.4-90.5-66.5-144.3-65.5c-23.9,0.4-48.5,6.2-67.7,21.1c-13.5,10.4-24.3,24.9-35.6,37.5c-20,22.2-40,44.4-58.8,67.7
		c-16.7,20.8-30.6,42.7-43.1,66.4c-21.5,40.8-42.3,85.8-79.5,115c-18.7,14.7-41.3,23.4-65.1,24.4c-16.4,0.7-32.7-2.1-48.2-7.4
		c-15.5-5.3-30.6-9.3-47.1-9.9c-46.2-1.5-97.6,20.2-116.9,64.6c-20.8,47.9-4.1,103,23.2,144.6c15.2,23.1,34.2,42.4,55.8,59.6
		c24.2,19.2,49.3,37.3,69.9,60.5c39.8,44.8,55.6,103,64.9,160.8c9.1,56.7,12.1,117.9,43.8,167.7c27.1,42.6,69.4,73.6,113.7,96.5
		c50.1,25.9,105.2,43.9,160.6,54.2c28.7,5.4,57.9,8.4,87.2,8.5C749.5,1387.8,749.5,1380.4,744.8,1380.4z"/>
</g>
<g>
	<path style="&st1;" d="M784.6,1513.7c-77.7-0.2-154.6-17.4-227.4-43.8c-55.5-20.2-110-47-155.4-85.2
		c-24.1-20.3-45.6-43.8-61.5-71.1c-17.8-30.4-27-64.6-33.5-99c-12.9-68.7-16.8-139.2-41.1-205.3c-12.1-32.9-28.9-63.8-51.5-90.8
		c-24.1-28.8-53.8-51.5-83.2-74.4C103.8,823,78.9,800.4,59,772c-18.8-26.9-33.3-57.1-40-89.3c-6.4-30.8-5-64.6,9.4-93.1
		c13.5-26.9,38-46.4,65.6-57.5c29.1-11.7,61.7-15.3,92.5-9.6c19.9,3.7,38.2,12.6,58.1,16.2c16.5,3,33.4,3.6,50,1.4
		c55.7-7.4,96.4-47,126.1-92.1c14.9-22.7,27.5-46.8,40.1-70.8c16-30.7,32.6-60.2,54-87.4c21.4-27.2,44.6-53.1,67.7-78.9
		c14.3-15.9,28.1-32.6,43.1-47.9c47.5-48.1,131.3-37.1,186.7-11.2c59.5,27.8,99.9,80.2,114.9,143.8c7.3,31,8.5,63.7,3.3,95.1
		c-2.6,15.7-6.8,31.1-12.6,45.9c-6.3,16.1-15,31.1-23.1,46.3c-16.3,30.7-29.4,62.9-31.2,98c-1.6,32.2,6.2,64,19.7,93.1
		c12.9,28,30.8,53.3,49.8,77.4c22.8,29,46.5,57.3,68.4,87.1c80.2,109.4,146.6,237.9,137.4,377.5c-4.4,67.5-27.3,134.2-73.2,184.8
		c-44.8,49.3-105.9,82.5-169.9,99.3C859.6,1509.6,822.1,1513.6,784.6,1513.7c-5.9,0-5.9,9.1,0,9.1c73.2-0.2,145.9-16.3,209.5-53.2
		c56.4-32.7,102.7-80.6,128.3-141c55.3-130.6,18.2-278.1-48.8-396.6c-36.4-64.4-81.9-122.3-128.1-179.8
		c-41.5-51.7-79.4-112-71.8-181.2c4.2-37.7,22.3-70.2,39.7-103.1c15.1-28.6,25-59,28.3-91.3c6.3-61.4-10.4-125.9-49.1-174.3
		c-42-52.5-112.1-82.3-178.8-81.2c-29.6,0.5-60,7.7-83.8,26.1c-16.7,12.9-30.1,30.8-44.1,46.4c-24.7,27.5-49.6,55-72.8,83.8
		c-20.7,25.8-37.9,52.9-53.3,82.3C433.1,410.2,407.4,466,361.3,502c-23.2,18.2-51.1,28.9-80.6,30.2c-20.3,0.9-40.5-2.6-59.7-9.2
		c-19.2-6.6-37.9-11.6-58.4-12.2c-57.2-1.8-120.9,25-144.8,80c-25.7,59.3-5.1,127.6,28.8,179.1c18.8,28.6,42.4,52.6,69.1,73.8
		c30,23.8,61.1,46.2,86.6,75c49.3,55.5,68.9,127.5,80.4,199.2c11.3,70.3,15,146.1,54.3,207.7c33.6,52.8,85.9,91.2,140.8,119.6
		c62.1,32.1,130.3,54.4,198.9,67.2c35.6,6.6,71.7,10.4,108,10.5C790.5,1522.8,790.5,1513.7,784.6,1513.7z"/>
</g>
<g>
	<path style="&st1;" d="M1252.4,1449.5c-31.6,74.8-89.1,134.2-158.9,174.6c-30.2,17.5-62,31.2-94.9,41.5
		c-53,16.6-108.7,24.2-164.6,24.4h0c-44.9-0.1-89.6-4.8-133.7-13c-85-15.8-169.5-43.4-246.4-83.2c-68-35.2-132.8-82.7-174.4-148.1
		c-48.6-76.4-53.2-170.3-67.2-257.3c-14.3-88.8-38.5-178-99.6-246.8c-31.6-35.6-70.1-63.4-107.2-92.8c-1.7-1.3-3.3-2.6-4.9-4v-14.8
		c7.8,6.6,15.7,13.1,23.9,19.4c36.4,28.4,73.3,56.5,103.1,92.1c27.9,33.4,48.7,71.7,63.7,112.4c30.1,81.9,35,169.2,51,254.3
		c8,42.6,19.4,84.9,41.5,122.6c19.8,33.7,46.4,62.9,76.2,88c56.3,47.3,123.8,80.6,192.5,105.5c90.2,32.8,185.4,54.1,281.6,54.3
		c46.4-0.1,92.9-5.1,137.9-16.9c7.1-1.9,14.1-3.9,21.1-6.1c71.6-22.2,138.8-61.3,189.4-117c56.9-62.7,85.2-145.3,90.7-228.9
		c11.4-172.9-70.9-332-170.2-467.5c-27-36.9-56.4-71.9-84.7-107.8c-23.5-29.9-45.7-61.2-61.7-95.8c-16.7-36.1-26.4-75.4-24.4-115.3
		c2.2-43.5,18.5-83.3,38.7-121.4c10-18.9,20.8-37.4,28.6-57.3c7.2-18.3,12.4-37.4,15.6-56.9c6.5-38.9,5-79.4-4.1-117.8
		C992.2,91.3,942.2,26.4,868.5-8.1c-50.9-23.8-121.1-37.5-177.9-18.7c-19.9,6.6-38.1,17.1-53.3,32.5c-18.6,18.9-35.8,39.6-53.4,59.3
		c-28.6,31.9-57.3,63.9-83.9,97.7C473.3,196.4,452.8,233,433,271c-15.5,29.8-31.1,59.6-49.6,87.7c-31.6,48-73.3,91-128.2,108
		c-0.2,0-0.3,0.1-0.5,0.2c-8.8,2.7-18,4.7-27.5,6c-20.6,2.7-41.5,2-62-1.8c-24.6-4.5-47.3-15.5-71.9-20.1c-30.6-5.7-62.7-4-92.7,4.5
		v-11.7c20.7-5.4,42.2-7.8,63-7.2c25.3,0.8,48.5,7,72.3,15.1c23.8,8.2,48.7,12.5,73.9,11.4c14.6-0.6,28.9-3.1,42.7-7.4
		c0.1,0,0.2-0.1,0.4-0.1c20.5-6.3,39.7-16.5,56.8-29.9c57.1-44.7,89-113.7,121.9-176.4c19.1-36.3,40.4-69.9,66.1-101.9
		c28.7-35.7,59.5-69.7,90.1-103.8c17.4-19.3,34-41.6,54.6-57.5c13.1-10.1,27.9-17.5,43.4-22.6c19.4-6.4,40.1-9.3,60.4-9.7
		c82.6-1.5,169.4,35.5,221.4,100.5c48,60,68.6,139.9,60.9,215.9c-4.1,40-16.3,77.6-35,113.1c-21.5,40.7-44.1,81-49.2,127.6
		c-9.5,85.7,37.5,160.5,88.9,224.5c57.2,71.3,113.6,142.9,158.7,222.7C1274.9,1105,1320.9,1287.7,1252.4,1449.5z"/>
</g>
<g>
	<path style="&st1;" d="M307.9,1685.2c24.8,20.8,51.3,39.4,79,56.2h-26.1c-59.9-38.6-114.1-86.6-152.4-146.7
		c-60.3-94.6-65.9-210.9-83.2-318.7c-17.7-110-47.6-220.4-123.3-305.6c-0.4-0.5-0.8-0.9-1.2-1.4v-20.5c6.7,7,13.2,14.2,19.5,21.7
		c34.6,41.3,60.4,88.8,78.9,139.2c37.3,101.4,43.4,209.6,63.1,315c9.9,52.8,24,105.2,51.3,151.8
		C237.9,1617.9,270.9,1654.1,307.9,1685.2z"/>
	<path style="&st1;" d="M1413.3,1599.2c-22.9,54.2-56.8,101.9-98.3,142.1h-20c11-10,21.5-20.4,31.5-31.5
		c70.5-77.6,105.5-179.9,112.3-283.6c14.1-214.1-87.8-411.2-210.8-579c-33.5-45.7-69.8-89.1-104.9-133.6
		c-29.2-37-56.6-75.8-76.5-118.7c-20.7-44.7-32.7-93.4-30.2-142.8c2.7-53.9,22.9-103.2,47.9-150.3c12.4-23.4,25.8-46.3,35.4-71
		c8.9-22.7,15.3-46.4,19.3-70.4c8.1-48.2,6.2-98.3-5-145.9c-23-97.6-85-177.9-176.3-220.6c-62.9-29.4-149.5-46.3-219.8-23.4
		c-24.9,8.1-47.7,21.2-66.7,40.5c-23,23.4-44.3,49-66.2,73.4c-35.5,39.6-71,79.2-103.9,121c-32.9,41.8-58.3,87.1-82.8,134.2
		c-19.2,36.9-38.6,73.9-61.5,108.7c-39.1,59.4-90.7,112.6-158.6,133.7c-0.3,0.1-0.5,0.2-0.8,0.2c-11,3.4-22.3,5.9-34.2,7.5
		c-25.6,3.4-51.4,2.5-76.8-2.2c-22.8-4.2-44.2-12.8-66.2-19.3v-14c10,2.7,19.9,5.8,29.9,9.3c29.5,10.1,60.4,15.5,91.5,14.1
		c17.7-0.8,35-3.7,51.7-8.8c26-7.8,50.3-20.6,72-37.5c70.7-55.4,110.2-140.9,151-218.5c23.6-45,50-86.6,81.8-126.2
		c35.6-44.2,73.7-86.4,111.6-128.6c21.5-24,42.1-51.5,67.7-71.3c16-12.3,33.9-21.4,52.8-27.7c0.4-0.1,0.7-0.2,1.1-0.4
		c24-7.9,49.5-11.5,74.7-12c102.3-1.8,209.9,44,274.2,124.5c59.4,74.3,85,173.3,75.4,267.5c-5.1,49.6-20.1,96.1-43.4,140
		c-26.7,50.4-54.5,100.3-60.9,158.1c-11.8,106.2,46.4,198.7,110.1,278c70.9,88.3,140.7,177,196.6,275.9
		C1441.2,1172.6,1498.1,1398.9,1413.3,1599.2z"/>
</g>
<g>
	<path style="&st1;" d="M2038.6,1358.3c-24.4-7.5-46.9-20.4-67.3-35.7c-15.5-11.7-30.1-25.4-40.7-41.8c-5.6-8.7-10.1-18.2-12.5-28.3
		c-2.7-11.3-2.3-22.9-1-34.4c2.6-22.8,8.1-45.4,6.8-68.5c-0.6-11.5-2.9-22.9-7.4-33.5c-4.8-11.4-12-21.4-19-31.4
		c-6.5-9.3-12.2-18.8-15.7-29.6c-3.3-10.3-5-21.2-4-31.9c1-10.3,4.7-20.8,11.9-28.4c6.8-7.2,16.4-10.9,26.2-11.8
		c10.3-0.9,20.9,1.1,30,5.9c5.9,3.1,10.8,7.6,16.7,10.7c4.9,2.5,10.1,4.4,15.6,5.3c18.2,3,34.9-5.5,48.6-16.8
		c6.9-5.7,13.2-12.1,19.4-18.4c8-8.1,16-15.8,25.4-22.3c9.4-6.5,19.2-12.4,28.9-18.3c6-3.6,12-7.5,18.2-10.9
		c19.6-10.6,44.9,1,59.8,14.5c16,14.5,23.7,34.8,22.3,56.3c-0.7,10.5-3.4,20.8-8.1,30.2c-2.3,4.7-5.1,9.1-8.4,13.2
		c-3.5,4.5-7.7,8.3-11.7,12.3c-8.1,8.1-15.3,16.9-19.3,27.8c-3.6,10-4.2,20.7-2.8,31.2c1.4,10,4.6,19.7,8.2,29.1
		c4.4,11.3,9.1,22.5,13.1,34c14.7,42.1,23.2,88.9,6.8,132c-7.9,20.8-21.5,39.6-40.8,51.1c-18.8,11.2-41.2,15.8-63,14.9
		C2062.5,1364.3,2050.4,1361.9,2038.6,1358.3c-1.8-0.6-2.7,2.3-0.9,2.9c23,7,47.5,8.9,71,3.5c20.9-4.8,40.1-15.5,53.9-32
		c30-35.7,32.5-85.7,22.9-129.5c-5.2-23.8-14-46.4-23-68.9c-8.1-20.3-14.2-42.9-5.1-63.9c4.9-11.4,13.8-19.9,22.4-28.6
		c7.5-7.5,13.5-16.1,17.7-26c7.9-18.7,8.9-40.6,1.3-59.6c-8.1-20.5-27.3-36.7-48.4-42.8c-9.4-2.7-19.6-3.4-28.9,0.1
		c-6.5,2.4-12.4,6.8-18.4,10.4c-10.4,6.3-20.9,12.5-31,19.3c-9,6.1-17,13-24.7,20.7c-13.2,13.3-26.7,28.4-44.7,35.3
		c-9.1,3.5-18.9,4.2-28.3,1.7c-6.5-1.7-12.5-4.7-17.9-8.6c-5.4-3.9-10.8-7.3-17.2-9.5c-17.8-6.1-40.4-3.8-53.2,11.2
		c-13.8,16.2-13.9,39.6-8.2,59.1c3.2,10.8,8.3,20.6,14.6,29.9c7.1,10.4,14.7,20.4,20,31.9c10.2,22.2,9.4,46.7,6.1,70.4
		c-3.2,23.2-9.4,47.4-3,70.6c5.5,19.8,18.2,37,32.8,51.2c16.4,16.1,35.7,29.7,56.1,40.3c10.6,5.5,21.6,10.2,32.9,13.7
		C2039.5,1361.8,2040.4,1358.9,2038.6,1358.3z"/>
</g>
<g>
	<path style="&st1;" d="M2038.9,1314.9c-19.9-6.2-38.3-16.6-55-29.2c-12.7-9.5-24.6-20.8-33.2-34.1c-4.6-7.1-8.3-14.9-10.2-23.1
		c-2.2-9.2-1.9-18.7-0.8-28.1c2.1-18.7,6.6-37.1,5.6-56c-0.5-9.4-2.4-18.7-6.1-27.4c-3.9-9.3-9.8-17.5-15.5-25.7
		c-5.3-7.6-9.9-15.3-12.8-24.2c-2.7-8.4-4.1-17.3-3.2-26.1c0.8-8.4,3.8-17,9.7-23.2c5.6-5.9,13.4-8.9,21.4-9.6
		c8.4-0.7,17.1,0.9,24.5,4.8c4.8,2.5,8.8,6.2,13.6,8.7c4,2.1,8.3,3.6,12.7,4.3c14.9,2.5,28.5-4.5,39.7-13.7
		c5.6-4.7,10.8-9.9,15.9-15c6.5-6.6,13.1-12.9,20.8-18.2c7.7-5.3,15.6-10.1,23.6-14.9c4.9-3,9.8-6.2,14.9-8.9
		c16-8.6,36.6,0.8,48.9,11.8c13.1,11.8,19.4,28.5,18.2,46c-0.6,8.5-2.8,17-6.6,24.7c-1.9,3.8-4.2,7.5-6.9,10.8
		c-2.9,3.6-6.3,6.8-9.6,10.1c-6.6,6.6-12.5,13.8-15.7,22.7c-3,8.2-3.4,16.9-2.3,25.5c1.1,8.2,3.7,16.1,6.7,23.8
		c3.6,9.3,7.4,18.4,10.7,27.8c12,34.4,18.9,72.7,5.6,107.8c-6.5,17-17.6,32.3-33.4,41.7c-15.4,9.2-33.7,12.9-51.5,12.1
		C2058.4,1319.7,2048.5,1317.8,2038.9,1314.9c-1.5-0.5-2.2,1.9-0.7,2.3c18.8,5.7,38.8,7.3,58,2.8c17.1-4,32.7-12.6,44.1-26.1
		c24.5-29.2,26.6-70,18.7-105.8c-4.3-19.4-11.4-37.9-18.8-56.3c-6.6-16.6-11.6-35-4.2-52.2c4-9.3,11.3-16.3,18.3-23.4
		c6.1-6.2,11.1-13.2,14.5-21.2c6.4-15.3,7.2-33.2,1.1-48.7c-6.7-16.8-22.3-30-39.5-34.9c-7.7-2.2-16-2.7-23.6,0.1
		c-5.3,2-10.2,5.5-15,8.5c-8.5,5.1-17.1,10.2-25.3,15.8c-7.4,5-13.9,10.6-20.2,16.9c-10.8,10.9-21.8,23.2-36.5,28.8
		c-7.4,2.8-15.4,3.4-23.1,1.4c-5.3-1.4-10.2-3.9-14.6-7.1c-4.4-3.2-8.8-6-14-7.7c-14.6-5-33-3.1-43.5,9.2
		c-11.3,13.2-11.4,32.4-6.7,48.3c2.6,8.8,6.7,16.8,11.9,24.4c5.8,8.5,12,16.7,16.3,26.1c8.3,18.2,7.7,38.2,5,57.5
		c-2.6,18.9-7.6,38.7-2.4,57.7c4.5,16.2,14.9,30.2,26.8,41.8c13.4,13.1,29.2,24.2,45.8,32.9c8.6,4.5,17.6,8.3,26.9,11.2
		C2039.6,1317.7,2040.4,1315.3,2038.9,1314.9z"/>
</g>
<g>
	<path style="&st1;" d="M2063.1,1256.3c-12.7-3.9-24.4-11.1-34.7-19.9c-7.9-6.7-15.3-14.6-20.5-24.2c-2.8-5.1-4.9-10.7-5.9-16.8
		c-1.1-6.7-0.6-13.8,0.3-20.7c1.9-13.8,5.4-27.6,5.3-41.5c0-6.9-1-13.7-3.1-20c-2.3-6.7-5.8-12.6-9.3-18.5c-3.2-5.4-6-11-7.6-17.5
		c-1.5-6.1-2.1-12.7-1.3-19.2c0.8-6.2,3-12.7,7-17.4c3.8-4.5,9-7,14.2-7.8c5.5-0.8,11,0.2,15.8,2.8c3,1.7,5.5,4.3,8.6,6
		c2.5,1.4,5.3,2.4,8.1,2.8c9.6,1.4,18.6-4.2,26.1-11.4c3.8-3.6,7.3-7.6,10.8-11.6c4.4-5.1,8.9-9.9,14-14.1c5.1-4.2,10.5-8,15.8-11.8
		c3.3-2.3,6.5-4.9,9.9-7c10.6-6.9,23.7-0.5,31.3,7.3c8.1,8.3,11.7,20.4,10.4,33.4c-0.6,6.3-2.3,12.7-5.1,18.4
		c-1.4,2.9-2.9,5.6-4.8,8.2c-2,2.8-4.3,5.2-6.5,7.7c-4.5,5.1-8.5,10.6-10.9,17.3c-2.2,6.1-2.7,12.6-2.3,18.9
		c0.5,6,1.9,11.8,3.6,17.4c2,6.7,4.3,13.3,6.1,20.2c6.7,25.1,10.1,53.1,0.3,79.5c-4.7,12.8-12.4,24.4-22.9,31.8
		c-10.3,7.2-22.2,10.5-33.7,10.5C2075.6,1259.3,2069.3,1258.2,2063.1,1256.3c-1-0.3-1.5,1.5-0.5,1.8c12,3.6,24.9,4.2,37.5,0.3
		c11.2-3.4,21.6-10.3,29.4-20.6c16.8-22.3,19.4-52.5,15.3-78.7c-2.2-14.2-6.2-27.6-10.4-41c-3.8-12-6.4-25.5-1.1-38.4
		c2.9-7,7.8-12.4,12.6-17.8c4.2-4.7,7.6-10.1,10-16.1c4.6-11.5,5.7-24.7,2.2-36c-3.8-12.2-13.5-21.5-24.6-24.6
		c-4.9-1.4-10.3-1.5-15.3,0.8c-3.5,1.6-6.8,4.4-10,6.7c-5.7,4-11.4,8.1-16.9,12.4c-4.9,3.9-9.3,8.3-13.6,13.1
		c-7.3,8.4-14.9,17.8-24.5,22.4c-4.9,2.3-10.1,3-15,1.7c-3.4-0.9-6.5-2.5-9.3-4.8c-2.8-2.2-5.5-4.1-8.9-5.3
		c-9.3-3.2-21.3-1.3-28.5,8.1c-7.7,10.1-8.3,24.3-5.8,35.9c1.4,6.4,3.9,12.2,7,17.7c3.5,6.1,7.3,12,9.8,18.8
		c4.8,13.2,3.8,28,1.5,42.3c-2.3,14.1-6.1,28.8-3.3,42.7c2.4,11.8,8.7,21.8,16.1,30.1c8.3,9.3,18.2,17,28.7,22.9
		c5.5,3.1,11.2,5.6,17.1,7.4C2063.5,1258.4,2064,1256.6,2063.1,1256.3z"/>
</g>
<g>
	<path style="&st1;" d="M2066.7,1179.2c-5.9-1.8-11.3-5.1-16.1-9.2c-3.7-3.1-7.1-6.7-9.5-11.2c-1.3-2.4-2.3-5-2.7-7.7
		c-0.5-3.1-0.3-6.4,0.2-9.6c0.9-6.4,2.5-12.8,2.5-19.2c0-3.2-0.5-6.3-1.4-9.3c-1-3.1-2.7-5.8-4.3-8.5c-1.5-2.5-2.8-5.1-3.5-8.1
		c-0.7-2.8-1-5.9-0.6-8.9c0.4-2.9,1.4-5.9,3.2-8.1c1.8-2.1,4.1-3.2,6.5-3.6c2.5-0.4,5.1,0.1,7.3,1.3c1.4,0.8,2.6,2,4,2.8
		c1.2,0.7,2.4,1.1,3.8,1.3c4.4,0.6,8.6-1.9,12.1-5.3c1.8-1.7,3.4-3.5,5-5.4c2-2.4,4.1-4.6,6.5-6.5c2.4-1.9,4.8-3.7,7.3-5.4
		c1.5-1.1,3-2.2,4.6-3.2c4.9-3.2,11-0.2,14.5,3.4c3.8,3.9,5.4,9.5,4.8,15.5c-0.3,2.9-1.1,5.9-2.3,8.5c-0.6,1.3-1.4,2.6-2.2,3.8
		c-0.9,1.3-2,2.4-3,3.6c-2.1,2.4-3.9,4.9-5,8c-1,2.8-1.3,5.8-1,8.7c0.2,2.8,0.9,5.4,1.7,8c0.9,3.1,2,6.2,2.8,9.3
		c3.1,11.6,4.7,24.6,0.2,36.7c-2.2,5.9-5.7,11.3-10.6,14.7c-4.7,3.3-10.3,4.9-15.6,4.9C2072.5,1180.6,2069.6,1180.1,2066.7,1179.2
		c-0.4-0.1-0.7,0.7-0.2,0.8c5.6,1.7,11.5,1.9,17.4,0.1c5.2-1.6,10-4.8,13.6-9.5c7.8-10.3,9-24.3,7.1-36.4c-1-6.6-2.9-12.8-4.8-19
		c-1.7-5.6-3-11.8-0.5-17.8c1.3-3.2,3.6-5.7,5.8-8.2c1.9-2.2,3.5-4.7,4.6-7.5c2.1-5.3,2.6-11.4,1-16.6c-1.8-5.6-6.3-9.9-11.4-11.4
		c-2.3-0.6-4.8-0.7-7.1,0.4c-1.6,0.8-3.1,2-4.6,3.1c-2.6,1.9-5.3,3.7-7.8,5.8c-2.3,1.8-4.3,3.8-6.3,6.1c-3.4,3.9-6.9,8.2-11.4,10.4
		c-2.3,1.1-4.7,1.4-6.9,0.8c-1.6-0.4-3-1.2-4.3-2.2c-1.3-1-2.6-1.9-4.1-2.4c-4.3-1.5-9.9-0.6-13.2,3.7c-3.6,4.7-3.9,11.2-2.7,16.6
		c0.6,3,1.8,5.7,3.2,8.2c1.6,2.8,3.4,5.5,4.5,8.7c2.2,6.1,1.8,12.9,0.7,19.6c-1.1,6.5-2.8,13.3-1.5,19.7c1.1,5.5,4,10.1,7.4,13.9
		c3.8,4.3,8.4,7.9,13.3,10.6c2.5,1.4,5.2,2.6,7.9,3.4C2066.9,1180.2,2067.2,1179.4,2066.7,1179.2z"/>
</g>
<g>
	<path style="&st1;" d="M2068.5,1141.3c-2.5-0.8-4.8-2.2-6.9-3.9c-1.6-1.3-3-2.9-4.1-4.8c-0.5-1-1-2.1-1.2-3.3
		c-0.2-1.3-0.1-2.7,0.1-4.1c0.4-2.7,1.1-5.5,1.1-8.2c0-1.4-0.2-2.7-0.6-4c-0.4-1.3-1.1-2.5-1.8-3.7c-0.6-1.1-1.2-2.2-1.5-3.5
		c-0.3-1.2-0.4-2.5-0.3-3.8c0.2-1.2,0.6-2.5,1.4-3.5c0.8-0.9,1.8-1.4,2.8-1.5c1.1-0.2,2.2,0,3.1,0.6c0.6,0.3,1.1,0.9,1.7,1.2
		c0.5,0.3,1,0.5,1.6,0.6c1.9,0.3,3.7-0.8,5.2-2.3c0.8-0.7,1.4-1.5,2.1-2.3c0.9-1,1.8-2,2.8-2.8c1-0.8,2.1-1.6,3.1-2.3
		c0.6-0.5,1.3-1,2-1.4c2.1-1.4,4.7-0.1,6.2,1.4c1.6,1.7,2.3,4,2.1,6.6c-0.1,1.3-0.5,2.5-1,3.7c-0.3,0.6-0.6,1.1-0.9,1.6
		c-0.4,0.6-0.9,1-1.3,1.5c-0.9,1-1.7,2.1-2.2,3.4c-0.4,1.2-0.5,2.5-0.4,3.7c0.1,1.2,0.4,2.3,0.7,3.4c0.4,1.3,0.8,2.6,1.2,4
		c1.3,5,2,10.5,0.1,15.7c-0.9,2.5-2.5,4.8-4.5,6.3c-2,1.4-4.4,2.1-6.7,2.1C2071,1141.9,2069.7,1141.7,2068.5,1141.3
		c-0.2-0.1-0.3,0.3-0.1,0.3c2.4,0.7,4.9,0.8,7.4,0.1c2.2-0.7,4.3-2,5.8-4.1c3.3-4.4,3.8-10.4,3-15.6c-0.4-2.8-1.2-5.5-2.1-8.1
		c-0.7-2.4-1.3-5.1-0.2-7.6c0.6-1.4,1.5-2.5,2.5-3.5c0.8-0.9,1.5-2,2-3.2c0.9-2.3,1.1-4.9,0.4-7.1c-0.8-2.4-2.7-4.3-4.9-4.9
		c-1-0.3-2-0.3-3,0.2c-0.7,0.3-1.3,0.9-2,1.3c-1.1,0.8-2.3,1.6-3.3,2.5c-1,0.8-1.9,1.6-2.7,2.6c-1.5,1.7-2.9,3.5-4.9,4.4
		c-1,0.5-2,0.6-3,0.3c-0.7-0.2-1.3-0.5-1.8-0.9c-0.5-0.4-1.1-0.8-1.8-1c-1.8-0.6-4.2-0.3-5.6,1.6c-1.5,2-1.7,4.8-1.2,7.1
		c0.3,1.3,0.8,2.4,1.4,3.5c0.7,1.2,1.4,2.4,1.9,3.7c1,2.6,0.8,5.5,0.3,8.4c-0.5,2.8-1.2,5.7-0.7,8.5c0.5,2.3,1.7,4.3,3.2,6
		c1.6,1.8,3.6,3.4,5.7,4.5c1.1,0.6,2.2,1.1,3.4,1.5C2068.6,1141.8,2068.7,1141.4,2068.5,1141.3z"/>
</g>
<g>
	<path style="&st1;" d="M2037,1591.5c-48.4-15-93-40.4-133.3-70.7c-30.7-23.2-59.6-50.3-80.6-82.8c-11.2-17.2-20-36-24.8-56.1
		c-5.3-22.4-4.5-45.4-2-68.1c5.1-45.3,16.1-90,13.6-135.8c-1.3-22.8-5.8-45.3-14.7-66.4c-9.5-22.5-23.7-42.3-37.7-62.2
		c-12.9-18.4-24.1-37.2-31.1-58.7c-6.6-20.3-9.9-42-7.9-63.3c1.9-20.4,9.3-41.2,23.6-56.3c13.6-14.2,32.5-21.6,51.9-23.3
		c20.3-1.8,41.4,2.2,59.5,11.7c11.7,6.1,21.4,15.1,33.1,21.2c9.7,5.1,20.1,8.6,30.9,10.4c36.2,6,69.1-10.9,96.2-33.3
		c13.6-11.3,26.1-23.9,38.5-36.5c15.8-16.1,31.8-31.3,50.4-44.2c18.6-12.9,37.9-24.5,57.3-36.2c11.9-7.2,23.8-15,36-21.6
		c38.8-20.9,88.9,2,118.5,28.7c31.8,28.7,46.9,69.1,44.2,111.6c-1.4,20.7-6.8,41.3-16.1,59.9c-4.6,9.3-10.2,18.1-16.6,26.2
		c-7,8.8-15.3,16.5-23.2,24.4c-16,16-30.4,33.6-38.2,55.1c-7.2,19.8-8.4,41.1-5.5,61.8c2.7,19.9,9,39.1,16.3,57.7
		c8.7,22.4,18.1,44.6,26,67.3c29.1,83.5,45.9,176.3,13.6,261.5c-15.7,41.2-42.6,78.4-80.9,101.2c-37.3,22.2-81.7,31.2-124.9,29.5
		C2084.5,1603.2,2060.4,1598.6,2037,1591.5c-3.7-1.1-5.4,4.6-1.7,5.7c45.6,13.8,94,17.7,140.7,6.9c41.4-9.6,79.4-30.6,106.9-63.4
		c59.4-70.8,64.4-169.8,45.3-256.5c-10.4-47.1-27.7-91.9-45.5-136.5c-16-40.1-28.1-85-10.1-126.7c9.8-22.7,27.3-39.5,44.4-56.6
		c14.9-15,26.8-32,35.1-51.5c15.6-37,17.6-80.5,2.7-118c-16.1-40.7-54.1-72.7-95.9-84.7c-18.6-5.3-38.9-6.6-57.2,0.3
		c-12.9,4.8-24.6,13.5-36.4,20.5c-20.7,12.4-41.4,24.8-61.4,38.3c-17.9,12.1-33.8,25.8-49,41.1c-26.2,26.5-52.9,56.3-88.6,70
		c-17.9,6.9-37.4,8.3-56,3.4c-12.8-3.3-24.7-9.4-35.4-17.1c-10.7-7.8-21.4-14.5-34-18.8c-35.3-12.1-80.1-7.5-105.5,22.2
		c-27.3,32-27.5,78.6-16.3,117.1c6.3,21.4,16.4,40.9,29,59.2c14.1,20.5,29.2,40.5,39.6,63.3c20.1,44,18.6,92.6,12,139.5
		c-6.4,46-18.6,93.9-5.8,139.8c10.9,39.3,36.1,73.2,64.9,101.4c32.5,31.9,70.8,58.8,111.1,79.9c20.9,10.9,42.7,20.2,65.3,27.2
		C2038.9,1598.3,2040.6,1592.6,2037,1591.5z"/>
</g>
<g>
	<path style="&st1;" d="M2036.2,1703.8c-59.9-18.5-115.2-50-165.1-87.6c-38.1-28.7-73.8-62.3-99.8-102.6
		c-13.8-21.3-24.8-44.6-30.7-69.4c-6.6-27.7-5.6-56.2-2.4-84.3c6.3-56.1,19.9-111.4,16.8-168.2c-1.6-28.2-7.2-56.1-18.3-82.2
		c-11.8-27.9-29.4-52.4-46.6-77.1c-16-22.8-29.9-46.1-38.5-72.7c-8.1-25.2-12.2-52-9.7-78.4c2.4-25.3,11.5-51,29.3-69.7
		c16.8-17.6,40.3-26.8,64.3-28.9c25.2-2.2,51.2,2.8,73.7,14.5c14.5,7.6,26.5,18.7,41,26.3c12,6.3,24.9,10.7,38.3,12.9
		c44.8,7.4,85.6-13.5,119.2-41.3c16.9-14,32.3-29.6,47.7-45.2c19.6-19.9,39.4-38.8,62.4-54.7c23-15.9,47-30.4,70.9-44.9
		c14.8-8.9,29.4-18.5,44.6-26.7c48-25.9,110.1,2.4,146.8,35.6c39.3,35.5,58.1,85.5,54.7,138.2c-1.7,25.7-8.5,51.2-20,74.2
		c-5.7,11.5-12.6,22.4-20.6,32.5c-8.7,10.9-18.9,20.4-28.8,30.3c-19.8,19.9-37.6,41.6-47.3,68.3c-8.9,24.5-10.3,50.9-6.8,76.5
		c3.4,24.6,11.2,48.4,20.2,71.5c10.8,27.8,22.4,55.2,32.2,83.4c36,103.4,56.9,218.3,16.8,323.9c-19.4,51.1-52.8,97.2-100.2,125.4
		c-46.3,27.5-101.2,38.7-154.7,36.5C2095.1,1718.3,2065.2,1712.6,2036.2,1703.8c-4.5-1.4-6.7,5.7-2.2,7
		c56.5,17.1,116.5,21.9,174.3,8.5c51.2-11.9,98.4-37.9,132.4-78.5c73.6-87.7,79.8-210.4,56.1-317.7
		c-12.9-58.4-34.3-113.8-56.4-169.1c-19.8-49.7-34.8-105.3-12.5-156.9c12.1-28.1,33.9-48.9,55-70.2c18.5-18.5,33.2-39.6,43.4-63.8
		c19.3-45.9,21.8-99.7,3.3-146.2c-20-50.4-67-90.1-118.8-104.9c-23-6.6-48.2-8.2-70.9,0.3c-15.9,6-30.5,16.7-45.1,25.4
		c-25.6,15.4-51.3,30.7-76,47.5c-22.1,15-41.8,31.9-60.6,50.9c-32.5,32.8-65.5,69.7-109.7,86.6c-22.2,8.5-46.3,10.2-69.4,4.2
		c-15.9-4.1-30.6-11.6-43.9-21.2c-13.3-9.6-26.6-17.9-42.2-23.2c-43.7-14.9-99.2-9.3-130.7,27.5c-33.9,39.7-34.1,97.3-20.2,145
		c7.7,26.5,20.3,50.6,35.9,73.3c17.5,25.4,36.2,50.1,49.1,78.3c24.9,54.5,23,114.7,14.9,172.8c-7.9,56.9-23,116.3-7.2,173.2
		c13.5,48.7,44.8,90.7,80.4,125.6c40.3,39.5,87.7,72.8,137.7,98.9c25.9,13.5,52.9,25,80.9,33.6
		C2038.6,1712.2,2040.8,1705.2,2036.2,1703.8z"/>
</g>
<g>
	<path style="&st1;" d="M2396.7,967.5c-27.6,64-9,132.7,15.5,194.3c27.3,68.6,53.9,137.2,69.8,209.5c27.3,123.6,22.5,263.6-51.5,370
		h-11.4c17.6-24.3,31.7-51.2,42.4-79.3c49.6-130.8,23.8-273.1-20.8-401.2c-12.2-34.9-26.5-68.9-39.9-103.3
		c-11.1-28.6-20.8-58-25-88.6c-4.4-31.8-2.6-64.5,8.5-94.8c12-33.1,34-59.9,58.6-84.5c12.2-12.2,24.9-23.9,35.6-37.5
		c9.9-12.5,18.4-26,25.5-40.2c14.2-28.5,22.6-60.1,24.7-91.9c4.3-65.2-19-127.1-67.7-171.1c-41.4-37.4-108.9-69.9-165.6-51
		c-5.5,1.8-11,4.1-16.2,7c-18.8,10.2-37,22.1-55.3,33.1c-29.7,17.9-59.4,35.8-87.9,55.5c-28.5,19.8-53,43.1-77.2,67.8
		c-19,19.3-38.1,38.7-59.1,56c-24.3,20.1-51.5,37.3-81.1,46.3c-21.1,6.5-43.4,8.7-66.5,4.9c-16.6-2.8-32.5-8.3-47.4-16
		c-17.9-9.3-32.8-23.2-50.7-32.5c-27.8-14.5-60.1-20.6-91.3-17.9c-10.8,0.9-21.6,3-31.9,6.4c-17.9,5.9-34.5,15.5-47.7,29.4
		c-22,23.1-33.3,54.9-36.2,86.3c-3.1,32.7,2,65.9,12,97.1c10.7,33,27.9,61.8,47.7,90.1c21.4,30.5,43.2,60.9,57.8,95.5
		c13.7,32.3,20.7,66.9,22.6,101.9c3.9,70.3-13,138.9-20.8,208.3c-3.9,34.8-5.1,70.1,3,104.5c7.3,30.7,20.9,59.6,38,86
		c32.2,49.8,76.5,91.5,123.6,127c3.1,2.4,6.3,4.7,9.5,7h-15.8c-21.9-16.7-42.9-34.8-62.5-53.9c-44.2-43.3-82.9-95.3-99.6-155.6
		c-19.5-70.5-0.8-144,9-214.5c10-71.9,12.4-146.5-18.5-214c-16-34.9-39.2-65.5-60.8-97c-19.4-28.1-34.9-57.9-44.5-90.8
		c-17.3-59.1-17-130.5,25-179.7c14.8-17.3,33.9-29,54.8-35.9c34.2-11.3,73.5-9.6,107.1,1.9c19.3,6.6,35.8,16.9,52.2,28.8
		c16.4,11.9,34.7,21.2,54.3,26.3c25,6.5,51.1,5.7,75.6-1.7c3.5-1.1,6.9-2.2,10.3-3.5c54.6-21,95.6-66.7,135.9-107.3
		c23.3-23.5,47.7-44.4,75.1-63c30.6-20.8,62.4-39.7,94.1-58.8c18-10.8,36.1-24,55.8-31.5c1.4-0.5,2.8-1,4.2-1.5c0,0,0,0,0.1,0
		c27-8.9,56.5-6.7,83.6,1.1c64.1,18.4,122.4,67.5,147.1,130c22.8,57.7,19.9,124.3-4.1,181.1c-12.6,29.9-30.9,56.1-53.8,79
		C2438.6,906.9,2411.7,932.7,2396.7,967.5z"/>
</g>
<g>
	<path style="&st1;" d="M2559.7,395.7V411c-51.4-45.7-134.1-84.9-203.5-61.9c-0.3,0.1-0.6,0.2-0.8,0.3c-6.6,2.2-13,5-19.3,8.4
		c-23.3,12.6-45.8,27.3-68.5,41c-36.7,22.2-73.6,44.4-108.8,68.8c-35.3,24.5-65.6,53.4-95.7,84c-23.6,23.9-47.2,47.9-73.2,69.4
		c-30,24.8-63.7,46.1-100.2,57.3c-0.1,0-0.3,0.1-0.4,0.1c-26.1,7.9-53.6,10.7-82.2,6c-20.5-3.4-40.3-10.2-58.7-19.8
		c-22.2-11.6-40.7-28.7-62.9-40.3c-34.4-18-74.4-25.6-113-22.2c-13.6,1.2-27.1,3.8-40,8.1c-22,7.3-42.3,19.2-58.6,36.2
		c-27.3,28.6-41.3,68.1-44.9,106.9c-3.8,40.6,2.4,81.7,14.9,120.3c13.2,40.8,34.5,76.6,59,111.5c26.5,37.8,53.5,75.5,71.6,118.3
		c16.9,40.1,25.6,82.8,28,126.2c4.8,87.1-16.1,172.1-25.8,258.1c-4.9,43.1-6.4,86.9,3.7,129.4c9,38.1,25.9,73.8,47.1,106.5
		c3.9,6.1,8,12.1,12.3,18H1626c-23.7-34.1-42.7-71.3-53.8-111.4c-24.1-87.3-1-178.4,11.1-265.7c12.4-89.1,15.4-181.4-22.9-265.1
		c-19.8-43.3-48.5-81.2-75.3-120.2c-24-34.8-43.2-71.8-55.1-112.5c-21.4-73.2-21-161.7,30.9-222.5c18.4-21.6,42.2-36.2,68.3-44.7
		c42.3-13.8,90.7-11.7,132.2,2.5c24,8.2,44.4,20.9,64.7,35.6c20.3,14.8,42.9,26.2,67.3,32.6c31.2,8.1,63.5,7.1,94.1-2.2
		c0.4-0.1,0.8-0.2,1.2-0.4c3.8-1.2,7.5-2.5,11.2-3.9c67.7-26,118.4-82.7,168.3-132.9c28.9-29.1,59.1-55,93-78
		c37.9-25.7,77.3-49.2,116.6-72.8c22.3-13.4,44.7-29.8,69.1-39c1.7-0.6,3.5-1.3,5.2-1.8c33.5-11,70-8.3,103.6,1.3
		C2493.2,351,2529.1,370.2,2559.7,395.7z"/>
	<path style="&st1;" d="M2538.9,834.5c6.9-6.9,14-13.7,20.8-20.7v16c-30.4,30.4-60.6,60.9-78,101.2
		c-34.2,79.2-11.2,164.4,19.2,240.7c20.9,52.5,41.5,105.1,58.8,158.7v38.3c-7.1-25.1-15.1-49.9-23.6-74.4
		c-15-43.2-32.8-85.3-49.4-127.9c-13.8-35.5-25.7-71.9-30.9-109.7c-5.4-39.4-3.2-79.8,10.5-117.4
		C2481.2,898.2,2508.5,864.9,2538.9,834.5z"/>
</g>
<g>
	<path style="&st1;" d="M2559.7,155.4v13.9c-42.3-13.9-86.8-17.8-127.7-4.3c0,0,0,0,0,0c-8.6,2.8-17,6.4-25.3,10.9
		c-28.9,15.6-56.7,33.9-84.8,50.8c-45.5,27.5-91.1,54.9-134.8,85.2c-43.7,30.3-81.3,66.2-118.5,104c-29.2,29.7-58.5,59.3-90.6,85.9
		c-37.1,30.7-78.7,56.9-123.8,70.8c-0.2,0.1-0.4,0.1-0.6,0.2c-32.4,9.9-66.6,13.4-102.1,7.5c-25.4-4.2-49.9-12.7-72.7-24.6
		c-27.5-14.3-50.4-35.5-77.9-49.9c-42.6-22.3-92.1-31.7-140-27.5c-16.4,1.4-32.8,4.6-48.4,9.7c-27.7,9-53.3,23.8-73.7,45.2
		c-33.8,35.4-51.1,84.3-55.6,132.4c-4.7,50.2,3,101.2,18.5,149c16.3,50.6,42.8,94.9,73.1,138.2c32.8,46.8,66.3,93.5,88.6,146.5
		c20.9,49.6,31.7,102.6,34.7,156.2c6,107.9-19.9,213.1-31.9,319.6c-6,53.4-7.9,107.6,4.6,160.2c0.5,2.1,1,4.1,1.5,6.1H1458
		c-25.5-105.1,1.8-214.3,16.4-319.1c15.3-110.3,19-224.7-28.4-328.3c-24.5-53.6-60.1-100.6-93.3-148.9
		c-29.7-43.1-53.5-88.9-68.2-139.3c-26.5-90.7-26.1-200.2,38.3-275.6c23.2-27.2,53.3-45.4,86.3-55.8c52-16.5,111.2-13.8,162.1,3.6
		c29.7,10.1,54.9,25.9,80.1,44.2c25.2,18.3,53.2,32.5,83.4,40.3c38.6,10.1,78.7,8.8,116.6-2.8c5.1-1.6,10.2-3.3,15.2-5.2
		c83.8-32.2,146.7-102.4,208.4-164.7c35.8-36.1,73.2-68.1,115.2-96.7c47-31.9,95.8-61,144.4-90.2c27.6-16.6,55.3-36.9,85.6-48.3
		c2.1-0.8,4.3-1.6,6.4-2.2c41.5-13.7,86.7-10.3,128.3,1.6C2556.4,154.4,2558.1,154.9,2559.7,155.4z"/>
	<path style="&st1;" d="M2559.7,923.4v145.2c-1.9-9-3.4-18.1-4.7-27.3C2549.7,1002,2550.4,961.8,2559.7,923.4z"/>
</g>
<g>
	<path style="&st1;" d="M1082.3-164.5c9.2,36.6,24.7,69.9,43.8,102.3c15.4,26.2,30.6,52.4,35.1,83c7.3,48.7,2.8,100.2-4.7,148.5
		c-7.8,50-21.8,98.4-31.8,147.9c-9.3,46.2-12,92.9-4.3,139.5c5.6,34.3,15,82.2,47.6,101.9c37.2,22.4,72.5-13.7,97.1-37.9
		c30.9-30.5,63.3-60.4,101.1-82.1c81.4-46.8,183.7-47.2,273.4-29.7c24.5,4.8,48.6,10.9,72.5,17.9c14.2,4.2,28.3,10.1,43.1,12
		c16,2.1,31.8-1.1,46.1-8.4c32.5-16.8,54.9-49.8,75.2-79.1c24.4-35.1,47.1-72,77.6-102.3c29.8-29.6,67.2-49.2,110.2-46
		c12.5,0.9,24.9,3.6,36.9,7.4c6.5,2.1,13.8,4.1,19.9,7.4c7.9,4.3,14.9,9.2,23.4,12.4c31.6,11.7,66.1,4.8,96-8.3
		c34.2-15,64.8-38.2,91.8-63.7c28.1-26.5,54.3-57.1,69.5-93.1c8-19,12.6-39.7,11.2-60.4c-1.4-20.2-8.7-39.1-19.1-56.3
		c-10.8-18-24.5-34.1-37.8-50.2c-12.2-14.8-25-29.1-39.4-41.9c-22.1-19.6-47.6-35.5-76-44.3c-26.7-8.3-54.9-10.1-82.6-7.6
		c-65.2,5.7-128,29.5-190.3,47.8c-18.7,5.5-37.6,10.7-56.5,15.5c-17,4.3-34.3,9.1-51.7,11.3c-19,2.5-37.7-0.8-54.9-8.9
		c-17-8-32.2-19.1-48-29.1c-18.5-11.7-37.9-21.8-58.7-28.6c-28.8-9.4-59.3-12.4-89.5-11.3c-38.8,1.3-76.9,9.8-115.4,14.1
		c-38.3,4.3-78.2,6.4-116-2.6c-17.9-4.3-35.1-11.2-50.4-21.6c-9.8-6.7-17.5-16-27.5-22.4c-17.2-11.1-37.6-17.7-57.1-23.5
		c-29.4-8.8-59.6-15.2-89.8-20.7c-70.6-12.7-142.5-20.2-214.3-22.2c-32-0.9-64.2-0.6-96.1,2c-3.2,0.3-4.2,5-0.8,5.9
		c26.4,7.2,52.4,15.7,78.2,24.8c44.1,15.6,89.6,32.8,128.5,59.4C1061.6-196.4,1079.7-182.9,1082.3-164.5c0.5,3.8,6.3,2.2,5.8-1.6
		c-2.3-15.8-15.5-28.3-27.4-37.7c-17.6-13.9-37.7-24.5-57.9-34.2c-42-20-86.2-35.6-130.6-49.3c-9.9-3.1-19.8-6.1-29.8-8.8
		c-0.3,2-0.5,3.9-0.8,5.9c68.7-5.6,138.3-1.7,206.7,5.5c64.7,6.8,130.3,16.5,192.7,35.3c19.2,5.8,39.6,12.2,56.4,23.7
		c10.5,7.2,18.8,16.9,29.6,23.8c14.1,9,29.9,15.3,46.1,19.3c35.9,9,73.8,8,110.3,4.3c38.7-3.8,76.9-12.4,115.8-14.6
		c30.6-1.8,61.6,0.2,91.1,8.9c21.8,6.4,41.9,16.6,61.1,28.6c30.6,19.1,60.1,42.3,98.1,41c13.4-0.5,26.5-3.7,39.5-6.7
		c18.8-4.3,37.4-9,55.9-14.2c34.6-9.6,68.8-20.5,103.2-30.6c56.3-16.6,117.4-33.5,176.3-20.4c28.9,6.4,55.5,20.2,78.5,38.7
		c14.3,11.5,27.3,24.5,39.3,38.4c13.8,16,27.6,32.3,39.5,49.7c12.2,17.7,22.2,37.4,24.8,59c2.7,22.4-2.2,45.1-11.2,65.6
		c-16.2,36.9-44.1,67.9-73.6,94.7c-27.5,24.9-58.8,47.6-93.7,60.7c-16.8,6.3-34.7,10.3-52.7,9.6c-18.2-0.7-33.8-6.9-49.2-16.2
		c-10.8-6.5-24.5-10.1-36.7-13c-11.2-2.6-22.8-4.2-34.3-4.3c-20-0.1-39.6,4.5-57.6,13.2c-36.3,17.7-63.3,49.8-86.7,81.8
		c-24.3,33.2-45.2,69.3-72.5,100.2c-21.6,24.5-49.7,46.1-84.2,40.7c-16.7-2.6-32.8-9.5-49-14.1c-22.9-6.5-46.1-12.1-69.5-16.5
		c-44.7-8.3-90.4-11.9-135.7-8c-42,3.7-84.9,13-122.8,32c-37.8,19-70.5,46.7-100.9,75.7c-25.8,24.6-66.1,77.4-106.7,50.6
		c-15.5-10.2-24.5-28.5-30.4-45.5c-7.9-22.9-12.8-47.1-15.3-71.2c-5.1-48.6,1.8-96,12.8-143.3c11.1-47.6,23-94.8,29.1-143.3
		c3.2-25.1,5-50.4,4.9-75.7c-0.1-20.5-0.6-41.6-4.7-61.8c-5.8-28.7-20.8-53.5-35.4-78.4c-18.4-31.4-33.3-63.8-42.2-99.2
		C1087.2-169.9,1081.4-168.3,1082.3-164.5z"/>
</g>
<g>
	<path style="&st1;" d="M1192.7,519.5c-6.4-0.6-11.9-15.1-13.8-19.8c-5.8-13.9-9.2-29-12-43.8c-5.8-30.7-6.8-62.3-3.2-93.4
		c3.7-31.4,11.6-62.1,19-92.8c7.3-30.2,13.9-60.5,18.7-91.2c8.1-51.7,11.9-104.8,6.1-157c-2.9-25.5-10.8-49.7-22.4-72.6
		c-10.3-20.3-22.9-39.3-33.5-59.5c-6.9-13.2-12.9-26.8-17.7-40.9c-4.3-12.8-6.2-26.5-11.5-38.9c-10.6-25-32.8-43.1-54.9-57.6
		c-0.5,1.9-1,3.7-1.5,5.6c52.1,6.3,104.5,14.6,155.1,28.9c13.3,3.8,26.7,7.9,39.5,13.4c5.2,2.2,11.6,5,15.5,8.3
		c7.2,6.1,13.8,12.7,21.6,18.3c8.5,6.1,17.5,11.4,26.9,15.9c19.1,9.1,39.7,14.9,60.6,18.2c52.9,8.3,106.7,1.5,159.3-6.4
		c47.5-7.1,95.9-13.4,142.3,2.7c37.7,13.1,67.1,41.2,103.4,56.8c21.3,9.2,44.4,13.2,67.6,11.3c27.6-2.2,55.2-10.5,81.9-17.6
		c52.1-13.8,103.2-31.5,155.4-45.1c43.8-11.3,91.4-20.5,135.5-5.7c46.4,15.6,78.5,54.8,107.7,92c16.6,21.1,32,44.5,28.6,72.5
		c-3.1,25.6-17.9,49.1-33.7,68.8c-29.2,36.4-67.7,70.3-110.5,89.5c-20.8,9.3-46.5,15.9-68,4.9c-5.4-2.8-9.8-6.6-15.5-8.9
		c-13.2-5.6-26.8-10.2-40.7-13.5c-43.5-10.2-88.5-5.3-127.7,16.6c-34.5,19.4-61.8,49.2-85.6,80.4c-11.9,15.7-23,32-34.1,48.2
		c-15.5,22.7-30.7,46.5-50.1,66.1c-7.3,7.4-15.6,14.7-25.5,18.3c-12,4.3-23.5-0.7-35.1-4.3c-27-8.4-54.3-15.8-82-21.5
		c-49-10.2-99.3-15.5-149.4-12.5c-52.7,3.2-106.7,14.5-153.8,39c-43.8,22.7-81.2,55.6-116.3,89.8c-8.9,8.7-17.6,17.8-27.1,25.9
		C1207.1,512,1199.4,519.5,1192.7,519.5c-3.9,0-3.9,6,0,6c6.2,0,12.3-4.6,17-8.1c9.6-7.3,18-15.9,26.5-24.4
		c18.1-17.8,36.6-35.3,56.2-51.4c19.9-16.3,41-31.1,63.8-43.1c24-12.7,49.5-21.4,75.8-27.7c53.2-12.9,108.3-15,162.5-9.1
		c26.3,2.8,52.3,7.5,78,13.5c14.1,3.3,28.1,6.9,42,10.8c14,4,28,9.8,42.3,12.7c19.7,3.9,35.9-8.3,49-21.7
		c18.8-19.3,33.8-42.3,48.9-64.5c23-33.8,46.2-68,76-96.3c31.3-29.7,69.9-50.8,113.6-53.2c27.4-1.5,54.6,3.8,80.2,13.2
		c7.9,2.9,14.7,5.8,21.5,10.3c9.9,6.5,21.4,9.7,33.2,9.8c20.6,0.1,40.8-8,58.6-17.6c21.1-11.3,40.4-25.9,58.3-41.8
		c17.5-15.6,34-32.6,47.9-51.5c14.2-19.4,26.5-41.8,28.7-66.1c2.4-25.1-9.7-46.8-24.2-66.3c-16.1-21.6-33.5-43.2-53-61.8
		c-30.8-29.2-68.3-47.2-111.2-48c-50.8-1-101.3,15.7-149.3,30.2c-52.6,15.9-105.3,32.4-159.3,43.1c-26.3,5.2-53,3.7-78-6
		c-20.7-8-39-20.7-57.6-32.7c-15-9.7-30.5-18.6-47.2-24.9c-21.2-8-43.7-11.7-66.3-12.3c-24-0.6-47.7,2.3-71.4,5.9
		c-28.9,4.4-57.9,8.7-87.1,10.7c-48.8,3.3-100.3,0.6-144.7-21.9c-9-4.6-17.6-9.9-25.7-16c-6.6-5-12.2-11-18.5-16.1
		c-5.2-4.2-11.9-6.9-18-9.4c-35.6-14.8-74.4-22.7-112.2-29.7c-27.5-5.1-55.3-9.1-83.1-12.5c-3.2-0.4-3.7,4.1-1.5,5.6
		c21.4,14,43.4,31.7,53.1,56.2c4.7,11.8,6.5,24.7,10.6,36.7c4,11.9,8.9,23.5,14.5,34.8c10.2,20.7,22.9,40.1,33.8,60.4
		c13,24.2,22.3,50,25.3,77.4c5.7,53.6,1.7,108.1-7.1,161.1c-5.1,31.1-12.2,61.8-19.6,92.5c-7.3,30-14.6,60.1-17.8,90.9
		c-3.5,33.7-1.3,67.9,6.1,101c3.4,14.9,7.2,30.4,14.8,43.7c3.1,5.4,7.6,12.9,14.5,13.5C1196.5,525.8,1196.5,519.8,1192.7,519.5z"/>
</g>
<g>
	<path style="&st1;" d="M1251.6,358.4c-4.9-0.4-9-10-10.5-13c-4.4-9.2-7-19.2-9.1-28.9c-4.4-20.3-5.2-41.1-2.4-61.6
		c2.8-20.7,8.9-41,14.5-61.2c5.5-19.9,10.6-39.9,14.3-60.2c6.2-34.1,9-69.1,4.6-103.5c-2.2-16.8-8.3-32.8-17.1-47.9
		c-7.9-13.4-17.5-26-25.5-39.3c-5.3-8.7-9.8-17.7-13.5-27c-3.3-8.4-4.8-17.5-8.8-25.7c-8.1-16.5-25-28.4-41.8-38
		c-0.4,1.2-0.8,2.5-1.2,3.7c39.7,4.2,79.6,9.7,118.1,19.1c10.2,2.5,20.3,5.2,30,8.8c4,1.5,8.9,3.3,11.8,5.5
		c5.5,4.1,10.5,8.4,16.4,12.1c6.4,4,13.3,7.5,20.5,10.5c14.6,6,30.2,9.8,46.1,12c40.3,5.4,81.3,1,121.3-4.2
		c36.1-4.7,73-8.8,108.4,1.8c28.7,8.6,51.1,27.2,78.7,37.5c16.2,6.1,33.8,8.7,51.4,7.5c21-1.5,42.1-6.9,62.4-11.6
		c39.7-9.1,78.5-20.8,118.3-29.7c33.3-7.5,69.6-13.5,103.2-3.8c35.3,10.3,59.8,36.1,82,60.7c12.6,13.9,24.4,29.3,21.8,47.8
		c-2.4,16.9-13.6,32.4-25.7,45.4c-22.2,24-51.5,46.4-84.1,59c-15.9,6.1-35.4,10.5-51.8,3.2c-4.1-1.8-7.5-4.3-11.8-5.9
		c-10-3.7-20.4-6.8-31-8.9c-33.1-6.7-67.4-3.5-97.2,11c-26.3,12.8-47.1,32.4-65.2,53c-9.1,10.3-17.5,21.1-26,31.8
		c-11.8,15-23.3,30.6-38.1,43.6c-5.5,4.9-11.9,9.7-19.4,12.1c-9.2,2.8-17.9-0.5-26.7-2.8c-20.5-5.6-41.3-10.4-62.4-14.2
		c-37.3-6.7-75.6-10.3-113.8-8.3c-40.1,2.1-81.2,9.6-117.1,25.7c-33.3,15-61.8,36.7-88.6,59.2c-6.8,5.7-13.4,11.8-20.6,17.1
		C1262.6,353.4,1256.8,358.4,1251.6,358.4c-2.9,0-2.9,4,0,4c4.7,0,9.3-3,12.9-5.4c7.3-4.8,13.7-10.5,20.2-16.1
		c13.8-11.8,27.8-23.3,42.8-33.9c15.1-10.7,31.3-20.5,48.6-28.5c18.2-8.4,37.7-14.1,57.7-18.3c40.5-8.5,82.4-9.9,123.7-6
		c20,1.9,39.8,5,59.4,8.9c10.7,2.1,21.4,4.5,32,7.1c10.7,2.6,21.3,6.5,32.2,8.4c15,2.6,27.4-5.5,37.3-14.3
		c14.3-12.7,25.7-27.9,37.2-42.5c17.5-22.3,35.2-44.8,57.9-63.5c23.8-19.6,53.2-33.5,86.5-35.1c20.8-1,41.6,2.5,61.1,8.7
		c6,1.9,11.2,3.8,16.4,6.8c7.5,4.3,16.3,6.4,25.3,6.4c15.7,0,31-5.3,44.6-11.6c16.1-7.5,30.8-17.1,44.4-27.6
		c13.4-10.3,25.9-21.5,36.5-34c10.8-12.8,20.2-27.6,21.9-43.6c1.8-16.5-7.4-30.9-18.4-43.7c-12.2-14.2-25.5-28.5-40.3-40.7
		c-23.5-19.3-52-31.1-84.6-31.7c-38.7-0.7-77.1,10.3-113.7,19.9c-40.1,10.5-80.2,21.3-121.3,28.4c-20,3.4-40.3,2.5-59.4-3.9
		c-15.8-5.3-29.7-13.7-43.8-21.6c-11.4-6.4-23.2-12.3-36-16.5c-16.1-5.3-33.3-7.7-50.5-8.1c-18.3-0.4-36.3,1.5-54.4,3.9
		c-22,2.9-44.1,5.7-66.3,7.1c-37.1,2.2-76.4,0.4-110.2-14.4c-6.9-3-13.4-6.5-19.6-10.5c-5-3.3-9.3-7.2-14.1-10.6
		c-4-2.8-9.1-4.5-13.7-6.2c-27.1-9.8-56.7-15-85.4-19.6c-21-3.3-42.1-6-63.2-8.2c-2.4-0.3-2.9,2.7-1.2,3.7
		c16.3,9.3,33,20.9,40.4,37.1c3.5,7.8,5,16.3,8.1,24.2c3.1,7.8,6.8,15.5,11,23c7.8,13.7,17.4,26.4,25.8,39.8
		c9.9,16,17,32.9,19.2,51.1c4.3,35.4,1.3,71.3-5.4,106.3c-3.9,20.5-9.3,40.8-14.9,61c-5.5,19.8-11.1,39.7-13.5,60
		c-2.7,22.2-1,44.8,4.7,66.6c2.6,9.8,5.5,20,11.3,28.8c2.3,3.5,5.8,8.5,11,8.9C1254.5,362.6,1254.5,358.6,1251.6,358.4z"/>
</g>
<g>
	<path style="&st1;" d="M1378.8,194.4c-1.6-0.1-3-3.9-3.5-5.1c-1.5-3.6-2.4-7.4-3.1-11.2c-1.5-7.9-1.7-15.9-0.8-23.9
		c0.9-8,3-15.9,4.9-23.7c1.9-7.7,3.6-15.5,4.8-23.3c2.1-13.2,3-26.8,1.5-40.2c-0.7-6.5-2.8-12.7-5.7-18.6
		c-2.6-5.2-5.9-10.1-8.6-15.2c-1.8-3.4-3.3-6.9-4.5-10.5c-1.1-3.3-1.6-6.8-2.9-10c-2.7-6.4-8.4-11-14.1-14.7c-0.1,0.5-0.3,1-0.4,1.4
		c13.3,1.6,26.7,3.7,39.7,7.4c3.4,1,6.8,2,10.1,3.4c1.3,0.6,3,1.3,4,2.1c1.8,1.6,3.5,3.3,5.5,4.7c2.2,1.6,4.5,2.9,6.9,4.1
		c4.9,2.3,10.2,3.8,15.5,4.7c13.5,2.1,27.3,0.4,40.8-1.6c12.1-1.8,24.5-3.4,36.4,0.7c9.6,3.3,17.2,10.5,26.5,14.5
		c5.5,2.4,11.4,3.4,17.3,2.9c7.1-0.6,14.1-2.7,21-4.5c13.3-3.5,26.4-8.1,39.8-11.5c11.2-2.9,23.4-5.3,34.7-1.5
		c11.9,4,20.1,14,27.6,23.5c4.2,5.4,8.2,11.4,7.3,18.5c-0.8,6.6-4.6,12.6-8.6,17.6c-7.5,9.3-17.3,18-28.3,22.9
		c-5.3,2.4-11.9,4.1-17.4,1.3c-1.4-0.7-2.5-1.7-4-2.3c-3.4-1.4-6.8-2.6-10.4-3.5c-11.1-2.6-22.7-1.4-32.7,4.3
		c-8.8,5-15.8,12.6-21.9,20.6c-3.1,4-5.9,8.2-8.7,12.3c-4,5.8-7.8,11.9-12.8,16.9c-1.9,1.9-4,3.8-6.5,4.7c-3.1,1.1-6-0.2-9-1.1
		c-6.9-2.2-13.9-4-21-5.5c-12.5-2.6-25.4-4-38.2-3.2c-13.5,0.8-27.3,3.7-39.4,10c-11.2,5.8-20.8,14.2-29.8,23
		c-2.3,2.2-4.5,4.6-6.9,6.6C1382.5,192.4,1380.5,194.4,1378.8,194.4c-1,0-1,1.5,0,1.5c1.6,0,3.1-1.2,4.3-2.1
		c2.5-1.9,4.6-4.1,6.8-6.2c4.6-4.6,9.4-9,14.4-13.2c5.1-4.2,10.5-8,16.3-11c6.1-3.2,12.7-5.5,19.4-7.1c13.6-3.3,27.7-3.8,41.6-2.3
		c6.7,0.7,13.4,1.9,20,3.4c3.6,0.8,7.2,1.8,10.7,2.8c3.6,1,7.2,2.5,10.8,3.2c5,1,9.2-2.1,12.5-5.5c4.8-4.9,8.6-10.8,12.5-16.5
		c5.9-8.6,11.8-17.4,19.5-24.6c8-7.6,17.9-13,29.1-13.6c7-0.4,14,1,20.5,3.4c2,0.7,3.8,1.5,5.5,2.6c2.5,1.7,5.5,2.5,8.5,2.5
		c5.3,0,10.4-2,15-4.5c5.4-2.9,10.3-6.6,14.9-10.7c4.5-4,8.7-8.3,12.3-13.2c3.6-5,6.8-10.7,7.4-16.9c0.6-6.4-2.5-12-6.2-17
		c-4.1-5.5-8.6-11.1-13.6-15.8c-7.9-7.5-17.5-12.1-28.4-12.3c-13-0.3-25.9,4-38.2,7.7c-13.5,4.1-27,8.3-40.8,11
		c-6.7,1.3-13.6,1-20-1.5c-5.3-2-10-5.3-14.7-8.4c-3.8-2.5-7.8-4.8-12.1-6.4c-5.4-2.1-11.2-3-17-3.1c-6.1-0.2-12.2,0.6-18.3,1.5
		c-7.4,1.1-14.8,2.2-22.3,2.7c-12.5,0.9-25.7,0.2-37-5.6c-2.3-1.2-4.5-2.5-6.6-4.1c-1.7-1.3-3.1-2.8-4.7-4.1
		c-1.3-1.1-3.1-1.8-4.6-2.4c-9.1-3.8-19-5.8-28.7-7.6c-7-1.3-14.1-2.3-21.3-3.2c-0.8-0.1-1,1.1-0.4,1.4c5.5,3.6,11.1,8.1,13.6,14.4
		c1.2,3,1.7,6.3,2.7,9.4c1,3,2.3,6,3.7,8.9c2.6,5.3,5.9,10.3,8.7,15.5c3.3,6.2,5.7,12.8,6.5,19.8c1.5,13.7,0.4,27.7-1.8,41.2
		c-1.3,8-3.1,15.8-5,23.7c-1.9,7.7-3.7,15.4-4.6,23.3c-0.9,8.6-0.3,17.4,1.6,25.8c0.9,3.8,1.8,7.8,3.8,11.2c0.8,1.4,2,3.3,3.7,3.5
		C1379.8,196,1379.8,194.4,1378.8,194.4z"/>
</g>
<g>
	<path style="&st1;" d="M1331.9,253.6c-2.6-0.2-4.8-6.1-5.5-7.9c-2.3-5.6-3.7-11.7-4.8-17.6c-2.3-12.3-2.7-25-1.3-37.5
		c1.5-12.6,4.7-24.9,7.6-37.2c2.9-12.1,5.6-24.3,7.5-36.6c3.3-20.7,4.8-42,2.4-63c-1.1-10.2-4.3-19.9-9-29.1
		c-4.1-8.1-9.2-15.8-13.4-23.9c-2.8-5.3-5.2-10.8-7.1-16.4c-1.7-5.1-2.5-10.6-4.6-15.6c-4.2-10-13.2-17.3-22-23.1
		c-0.2,0.7-0.4,1.5-0.6,2.2c20.9,2.5,41.9,5.9,62.2,11.6c5.4,1.5,10.7,3.2,15.8,5.4c2.1,0.9,4.7,2,6.2,3.3c2.9,2.5,5.5,5.1,8.6,7.3
		c3.4,2.4,7,4.6,10.8,6.4c7.7,3.7,15.9,6,24.3,7.3c21.2,3.3,42.8,0.6,63.9-2.6c19-2.9,38.5-5.4,57.1,1.1
		c15.1,5.2,26.9,16.5,41.5,22.8c8.6,3.7,17.8,5.3,27.1,4.5c11.1-0.9,22.2-4.2,32.9-7c20.9-5.6,41.4-12.7,62.3-18.1
		c17.5-4.5,36.7-8.2,54.3-2.3c18.6,6.3,31.5,22,43.2,36.9c6.6,8.5,12.8,17.8,11.5,29.1c-1.2,10.3-7.2,19.7-13.5,27.6
		c-11.7,14.6-27.1,28.2-44.3,35.9c-8.4,3.7-18.6,6.4-27.3,2c-2.2-1.1-3.9-2.6-6.2-3.6c-5.3-2.2-10.7-4.1-16.3-5.4
		c-17.4-4.1-35.5-2.1-51.2,6.7c-13.8,7.8-24.8,19.7-34.3,32.2c-4.8,6.3-9.2,12.8-13.7,19.3c-6.2,9.1-12.3,18.6-20.1,26.5
		c-2.9,3-6.3,5.9-10.2,7.3c-4.8,1.7-9.4-0.3-14.1-1.7c-10.8-3.4-21.8-6.3-32.9-8.6c-19.7-4.1-39.8-6.2-59.9-5
		c-21.1,1.3-42.8,5.8-61.7,15.6c-17.6,9.1-32.6,22.3-46.7,36c-3.6,3.5-7,7.1-10.8,10.4C1337.7,250.6,1334.6,253.6,1331.9,253.6
		c-1.5,0-1.5,2.4,0,2.4c2.5,0,4.9-1.8,6.8-3.3c3.9-2.9,7.2-6.4,10.6-9.8c7.3-7.2,14.7-14.2,22.6-20.6c8-6.5,16.5-12.5,25.6-17.3
		c9.6-5.1,19.9-8.6,30.4-11.1c21.3-5.2,43.4-6,65.2-3.7c10.5,1.1,21,3,31.3,5.4c5.6,1.3,11.3,2.8,16.8,4.3c5.6,1.6,11.2,3.9,17,5.1
		c7.9,1.6,14.4-3.3,19.7-8.7c7.5-7.7,13.5-17,19.6-25.9c9.2-13.6,18.5-27.3,30.5-38.6c12.5-11.9,28-20.4,45.6-21.4
		c11-0.6,21.9,1.5,32.2,5.3c3.2,1.2,5.9,2.3,8.6,4.1c4,2.6,8.6,3.9,13.3,3.9c8.3,0,16.3-3.2,23.5-7.1c8.5-4.5,16.2-10.4,23.4-16.8
		c7-6.2,13.6-13.1,19.2-20.7c5.7-7.8,10.6-16.8,11.5-26.5c0.9-10-3.9-18.8-9.7-26.6c-6.4-8.7-13.4-17.3-21.3-24.8
		c-12.4-11.7-27.4-18.9-44.6-19.2c-20.4-0.4-40.6,6.3-59.9,12.1c-21.1,6.4-42.2,13-63.9,17.3c-10.5,2.1-21.2,1.5-31.3-2.4
		c-8.3-3.2-15.6-8.3-23.1-13.1c-6-3.9-12.2-7.5-19-10c-8.5-3.2-17.5-4.7-26.6-4.9c-9.6-0.3-19.1,0.9-28.6,2.4
		c-11.6,1.8-23.2,3.5-34.9,4.3c-19.6,1.3-40.2,0.2-58-8.8c-3.6-1.8-7.1-4-10.3-6.4c-2.6-2-4.9-4.4-7.4-6.5c-2.1-1.7-4.8-2.8-7.2-3.8
		c-14.3-6-29.9-9.1-45-11.9c-11-2-22.2-3.7-33.3-5c-1.3-0.2-1.5,1.7-0.6,2.2c8.6,5.6,17.4,12.7,21.3,22.6c1.9,4.7,2.6,9.9,4.3,14.7
		c1.6,4.8,3.6,9.4,5.8,14c4.1,8.3,9.2,16.1,13.6,24.2c5.2,9.7,9,20,10.1,31c2.3,21.5,0.7,43.3-2.8,64.6c-2.1,12.5-4.9,24.8-7.9,37.1
		c-2.9,12-5.9,24.1-7.1,36.5c-1.4,13.5-0.5,27.3,2.5,40.5c1.3,6,2.9,12.2,5.9,17.5c1.2,2.2,3.1,5.2,5.8,5.4
		C1333.5,256.1,1333.5,253.7,1331.9,253.6z"/>
</g>
<g>
	<path style="&st1;" d="M1922.8,394.1c10.9-21.8,22.6-43.3,37.4-62.7c14.5-19,31.9-35.8,54-45.3c10.8-4.7,22.5-7.7,34.2-8.7
		c10.5-0.9,22.4-0.2,27.7,10.5c4.4,9.1,2.2,19.9-2.9,28.2c-6.2,10.1-15.8,17.8-24.5,25.6c-21,18.8-42,37.7-63,56.5
		c-20.2,18.1-40,36.6-60.8,54c-19,16-39.1,30.7-61.5,41.4c-19.9,9.5-41.2,16-62.9,19.6c-43.5,7.2-89.1,2.3-130-14.1
		c-10.2-4.1-20.1-9-29.6-14.6c-4.8-2.8-9.6-5.7-14-9c-3.8-2.9-8.2-6.8-8.4-11.9c-0.3-7.7,8-10.2,14.3-10.7c6-0.5,12.2,0.1,17.9,2
		c10.8,3.5,21.6,6.6,32.6,9.3c23.5,5.6,47.4,9.3,71.5,10.4c28.2,1.4,57.1-0.8,84.1-9.5c28.5-9.2,53.8-26.2,71.5-50.5
		C1915.1,408,1919.2,401.2,1922.8,394.1c1.7-3.4-3.4-6.5-5.2-3c-7.3,14.7-17,28.1-29.2,39.2c-10.9,10-23.6,17.9-37.2,23.8
		c-26.7,11.6-56.4,15.2-85.3,14.9c-25.3-0.3-50.6-3.7-75.3-9.2c-12.8-2.9-25.5-6.3-37.9-10.4c-3.9-1.3-8.1-2-12.2-2.3
		c-7.9-0.6-17.3,0.1-23.5,5.6c-7.5,6.7-4.8,17.5,1.5,23.9c3.9,3.9,8.8,6.9,13.5,9.9c4.7,3,9.6,5.7,14.5,8.3
		c40.1,21.1,86.3,30.3,131.4,27.2c22.5-1.5,44.9-6.1,66.1-13.7c22.9-8.3,44.1-20.2,63.6-34.7c21.6-16,41.3-34.4,61.3-52.3
		c21.5-19.3,43-38.6,64.5-57.9c10.4-9.3,21-18.4,31.1-28c8.2-7.8,16.3-17.1,18.7-28.4c2-9.4,0.6-20-6-27.3c-8.1-9.1-21.3-9-32.4-7.7
		c-23.7,2.7-46.3,12.7-64.3,28.4c-18.8,16.5-33.6,37.5-46.1,59c-6.1,10.4-11.6,21.1-17,31.9C1915.9,394.5,1921.1,397.5,1922.8,394.1
		z"/>
</g>
<g>
	<path style="&st1;" d="M680.2,1164.6c-38.5-0.1-76.6-8.6-112.6-21.7c-27.5-10-54.5-23.3-77-42.2c-11.9-10-22.6-21.7-30.5-35.2
		c-8.8-15.1-13.4-32-16.6-49c-6.4-34-8.3-69-20.4-101.7c-6-16.3-14.3-31.6-25.5-45c-11.9-14.2-26.7-25.5-41.2-36.8
		c-13.5-10.5-25.8-21.7-35.6-35.7c-9.3-13.3-16.5-28.3-19.8-44.2c-3.2-15.3-2.5-32,4.6-46.1c6.7-13.3,18.8-23,32.5-28.5
		c14.4-5.8,30.6-7.6,45.8-4.7c9.8,1.8,18.9,6.2,28.8,8c8.2,1.5,16.5,1.8,24.8,0.7c27.6-3.7,47.8-23.3,62.5-45.6
		c7.4-11.2,13.6-23.2,19.8-35.1c7.9-15.2,16.1-29.8,26.7-43.3c10.6-13.5,22.1-26.3,33.6-39.1c7.1-7.9,13.9-16.2,21.4-23.7
		c23.5-23.8,65-18.4,92.5-5.5c29.5,13.8,49.5,39.7,56.9,71.2c3.6,15.4,4.2,31.5,1.6,47.1c-1.3,7.8-3.4,15.4-6.2,22.7
		c-3.1,8-7.4,15.4-11.4,22.9c-8.1,15.2-14.6,31.1-15.5,48.5c-0.8,16,3.1,31.7,9.8,46.1c6.4,13.9,15.3,26.4,24.7,38.3
		c11.3,14.4,23,28.4,33.9,43.1c39.7,54.2,72.6,117.8,68.1,187c-2.2,33.5-13.5,66.5-36.3,91.6c-22.2,24.4-52.4,40.9-84.2,49.2
		C717.4,1162.5,698.8,1164.5,680.2,1164.6c-2.9,0-2.9,4.5,0,4.5c36.2-0.1,72.3-8.1,103.8-26.4c27.9-16.2,50.9-39.9,63.5-69.8
		c27.4-64.7,9-137.8-24.2-196.5c-18-31.9-40.6-60.6-63.5-89.1c-20.6-25.6-39.4-55.5-35.6-89.8c2.1-18.7,11.1-34.8,19.7-51
		c7.5-14.2,12.4-29.2,14-45.2c3.1-30.4-5.2-62.4-24.3-86.4c-20.8-26-55.5-40.8-88.6-40.2c-14.7,0.3-29.7,3.8-41.5,12.9
		c-8.3,6.4-14.9,15.3-21.9,23c-12.2,13.6-24.6,27.2-36,41.5c-10.3,12.8-18.8,26.2-26.4,40.7c-13.2,25.1-25.9,52.7-48.8,70.5
		c-11.5,9-25.3,14.3-39.9,15c-10.1,0.4-20-1.3-29.6-4.6c-9.5-3.3-18.8-5.7-28.9-6c-28.3-0.9-59.9,12.4-71.7,39.6
		c-12.7,29.4-2.5,63.2,14.2,88.7c9.3,14.2,21,26,34.2,36.6c14.8,11.8,30.2,22.9,42.9,37.1c24.4,27.5,34.1,63.2,39.8,98.7
		c5.6,34.8,7.4,72.4,26.9,102.9c16.6,26.1,42.6,45.2,69.7,59.2c30.7,15.9,64.5,26.9,98.5,33.3c17.6,3.3,35.5,5.2,53.5,5.2
		C683.1,1169.1,683.1,1164.6,680.2,1164.6z"/>
</g>
</svg>
